<svg width="137" height="136" viewBox="0 0 137 136" fill="none" xmlns="http://www.w3.org/2000/svg">
<g clip-path="url(#clip0_136_298)">
<path d="M52.349 58.4321L52.3758 84.411L78.4362 84.5193C78.7076 84.5563 78.9839 84.5348 79.2463 84.4562C79.5087 84.3776 79.7511 84.2437 79.957 84.0636C80.163 83.8835 80.3277 83.6613 80.4401 83.4122C80.5525 83.1631 80.6098 82.8929 80.6083 82.6197C80.6068 82.3466 80.5464 82.077 80.4312 81.8291C80.3161 81.5813 80.1489 81.361 79.9409 81.1832C79.7329 81.0054 79.4891 80.8742 79.2258 80.7985C78.9626 80.7228 78.6861 80.7043 78.4151 80.7444L58.8867 80.6329L84.7983 54.8834C85.1576 54.5264 85.3598 54.0418 85.3606 53.5361C85.3614 53.0305 85.1607 52.5452 84.8025 52.1871C84.4444 51.829 83.9583 51.6274 83.451 51.6266C82.9438 51.6258 82.457 51.8259 82.0978 52.1829L56.1862 77.9324L56.1356 58.465C56.1346 57.959 55.932 57.4742 55.5724 57.1172C55.2129 56.7601 54.7257 56.5601 54.2182 56.5611C53.7107 56.5621 53.2243 56.764 52.8662 57.1224C52.508 57.4809 52.3073 57.9665 52.3083 58.4724L52.349 58.4321Z" fill="white"/>
</g>
<rect x="0.00317206" y="-2.02222" width="92.7828" height="93.2424" rx="46.3914" transform="matrix(-0.707107 -0.707107 0.709322 -0.704885 69.7738 132.556)" stroke="white" stroke-width="2.86435"/>
<defs>
<clipPath id="clip0_136_298">
<rect width="95.6472" height="96.1068" rx="47.8236" transform="matrix(-0.707107 -0.707107 0.709322 -0.704885 68.334 136.001)" fill="white"/>
</clipPath>
</defs>
</svg>
