<svg width="47" height="40" viewBox="0 0 47 40" fill="none" xmlns="http://www.w3.org/2000/svg">
<path d="M29.4114 0.417624L0.560085 8.18029L8.19685 37.1622C8.23647 37.4748 8.34259 37.7753 8.50803 38.0434C8.67347 38.3115 8.89436 38.5409 9.15576 38.7161C9.41716 38.8913 9.71295 39.0081 10.0231 39.0588C10.3333 39.1095 10.6506 39.0928 10.9535 39.0098C11.2565 38.9268 11.538 38.7794 11.7791 38.5778C12.0201 38.3761 12.2151 38.1248 12.3507 37.8408C12.4863 37.5568 12.5595 37.2469 12.5652 36.9319C12.571 36.6169 12.5091 36.3043 12.3839 36.0152L6.69509 14.2885L43.0123 35.4084C43.5158 35.7012 44.1143 35.7817 44.6763 35.632C45.2382 35.4824 45.7175 35.115 46.0088 34.6106C46.3 34.1061 46.3793 33.5061 46.2292 32.9423C46.0791 32.3786 45.7119 31.8974 45.2084 31.6046L8.89121 10.4847L30.5019 4.63388C31.0637 4.48218 31.5419 4.11283 31.8315 3.6071C32.1212 3.10137 32.1984 2.50069 32.0462 1.93718C31.894 1.37368 31.5249 0.893521 31.0201 0.602337C30.5153 0.311154 29.9161 0.232795 29.3544 0.384503L29.4114 0.417624Z" fill="white"/>
</svg>
