<svg width="34" height="34" viewBox="0 0 34 34" fill="none" xmlns="http://www.w3.org/2000/svg">
<path d="M0.348967 7.43207L0.375834 33.411L26.4362 33.5193C26.7076 33.5563 26.9839 33.5348 27.2463 33.4562C27.5087 33.3776 27.7511 33.2437 27.957 33.0636C28.163 32.8835 28.3277 32.6613 28.4401 32.4122C28.5525 32.1631 28.6098 31.8929 28.6083 31.6197C28.6068 31.3466 28.5464 31.077 28.4312 30.8291C28.3161 30.5813 28.1489 30.361 27.9409 30.1832C27.7329 30.0054 27.4891 29.8742 27.2258 29.7985C26.9626 29.7228 26.6861 29.7043 26.4151 29.7444L6.88675 29.6329L32.7983 3.8834C33.1576 3.52641 33.3598 3.04179 33.3606 2.53613C33.3614 2.03048 33.1607 1.54522 32.8025 1.1871C32.4444 0.82899 31.9583 0.627356 31.451 0.626559C30.9438 0.625765 30.457 0.82587 30.0978 1.18286L4.18621 26.9324L4.1356 7.46497C4.1346 6.95903 3.93202 6.47421 3.57244 6.11716C3.21286 5.76011 2.72572 5.56007 2.21819 5.56106C1.71067 5.56206 1.22432 5.76399 0.866154 6.12244C0.507987 6.4809 0.30733 6.96651 0.308332 7.47245L0.348967 7.43207Z" fill="white"/>
</svg>
