<svg width="115" height="34" viewBox="0 0 115 34" fill="none" xmlns="http://www.w3.org/2000/svg">
<g clip-path="url(#clip0_1_633)">
<path d="M33.8109 11.1575H38.6138C41.2742 11.1575 42.6554 12.2483 42.6554 14.2966V14.3986C42.6933 14.9989 42.5146 15.5928 42.1516 16.0724C41.7887 16.552 41.2657 16.8854 40.6778 17.012C41.3819 17.074 42.0331 17.4112 42.4901 17.9504C42.947 18.4897 43.1728 19.1874 43.1185 19.8922V19.9628C43.1185 22.1994 41.6509 23.3766 38.8335 23.3766H33.8109V11.1575ZM38.1664 16.1723C39.5006 16.1723 40.0264 15.6935 40.0264 14.6027V14.5321C40.0264 13.5118 39.4456 13.0488 38.1507 13.0488H36.5105V16.188L38.1664 16.1723ZM38.4019 21.4539C39.7674 21.4539 40.3874 20.8339 40.3874 19.7274V19.6567C40.3874 18.5266 39.7674 17.9537 38.2685 17.9537H36.5105V21.4617L38.4019 21.4539Z" fill="white"/>
<path d="M43.8406 20.8889C43.8406 18.8013 45.7476 18.0165 48.4865 18.0165H49.4911V17.6634C49.4911 16.6039 49.1693 16.0232 48.0392 16.0232C47.8563 16.0015 47.6708 16.0174 47.4943 16.07C47.3178 16.1227 47.1539 16.2109 47.0127 16.3293C46.8716 16.4476 46.7561 16.5936 46.6735 16.7583C46.5909 16.9229 46.5429 17.1028 46.5324 17.2867H44.178C44.335 15.1678 46.0066 14.226 48.1961 14.226C50.3857 14.226 51.9317 15.1128 51.9317 17.5378V23.3609H49.5224V22.2858C49.2201 22.7118 48.8124 23.0522 48.3393 23.2736C47.8661 23.4951 47.3436 23.5901 46.8228 23.5493C45.2061 23.5493 43.8406 22.7645 43.8406 20.8889ZM49.4911 20.2375V19.4527H48.5336C47.0974 19.4527 46.2656 19.7666 46.2656 20.7162C46.2656 21.3676 46.658 21.7992 47.5605 21.7992C48.6513 21.8306 49.4911 21.2263 49.4911 20.2375Z" fill="white"/>
<path d="M52.9754 20.5592H55.2826C55.3847 21.344 55.7771 21.8306 56.8522 21.8306C57.8097 21.8306 58.257 21.4696 58.257 20.8496C58.257 20.2296 57.7233 19.9785 56.4441 19.798C54.0898 19.437 53.148 18.7542 53.148 17.012C53.148 15.2698 54.8588 14.226 56.6796 14.226C58.6651 14.226 60.1483 14.948 60.3681 16.9963H58.1C57.9666 16.2586 57.5507 15.9211 56.7031 15.9211C55.8555 15.9211 55.4396 16.2978 55.4396 16.8394C55.4396 17.3809 55.8634 17.6241 57.1583 17.8125C59.3949 18.1343 60.627 18.6993 60.627 20.6142C60.627 22.5291 59.2301 23.5493 56.8679 23.5493C54.5057 23.5493 53.0617 22.4898 52.9754 20.5592Z" fill="white"/>
<path d="M61.2627 19.0053V18.8719C61.233 18.2586 61.3309 17.6458 61.5504 17.0723C61.7699 16.4988 62.106 15.9772 62.5377 15.5404C62.9692 15.1037 63.4869 14.7613 64.0577 14.535C64.6285 14.3088 65.2401 14.2035 65.8538 14.226C68.161 14.226 70.2093 15.5758 70.2093 18.7699V19.4527H63.7976C63.8604 20.9359 64.6687 21.807 66.0107 21.807C67.1565 21.807 67.7215 21.3126 67.8785 20.5592H70.2329C69.9425 22.4898 68.4043 23.565 65.9636 23.565C63.2247 23.5493 61.2627 21.862 61.2627 19.0053ZM67.8 17.9302C67.7215 16.5803 67.0309 15.9682 65.8538 15.9682C65.3238 15.9657 64.8135 16.1687 64.4301 16.5346C64.0466 16.9004 63.8199 17.4007 63.7976 17.9302H67.8Z" fill="white"/>
<path d="M70.8607 19.0053V18.8719C70.8308 18.2572 70.9292 17.643 71.1496 17.0684C71.37 16.4938 71.7076 15.9714 72.1409 15.5344C72.5742 15.0974 73.0938 14.7553 73.6665 14.5301C74.2392 14.3048 74.8525 14.2012 75.4674 14.2259C77.5393 14.2259 79.4463 15.1284 79.6739 17.6947H77.3195C77.3039 17.4744 77.2441 17.2595 77.1438 17.0628C77.0434 16.8661 76.9046 16.6915 76.7355 16.5495C76.5664 16.4075 76.3705 16.3009 76.1594 16.2361C75.9483 16.1713 75.7263 16.1496 75.5067 16.1722C74.2275 16.1722 73.372 17.1296 73.372 18.8405V18.9739C73.372 20.771 74.1568 21.6893 75.5616 21.6893C75.8006 21.703 76.04 21.6691 76.2657 21.5894C76.4915 21.5098 76.6992 21.386 76.8766 21.2253C77.0541 21.0646 77.1979 20.8702 77.2995 20.6535C77.4011 20.4367 77.4586 20.2019 77.4686 19.9627H79.7053C79.5719 22.0816 78.0337 23.5492 75.436 23.5492C72.8384 23.5492 70.8607 21.9247 70.8607 19.0053Z" fill="white"/>
<path d="M80.2783 20.8888C80.2783 18.8013 82.1853 18.0165 84.9164 18.0165H85.9288V17.6634C85.9288 16.6039 85.5992 16.0231 84.4769 16.0231C84.2928 15.9991 84.1057 16.0133 83.9273 16.0649C83.7489 16.1165 83.5831 16.2043 83.4402 16.3229C83.2973 16.4415 83.1804 16.5883 83.0968 16.7541C83.0132 16.92 82.9648 17.1012 82.9544 17.2867H80.6001C80.757 15.1677 82.4286 14.226 84.6103 14.226C86.7921 14.226 88.3538 15.1128 88.3538 17.5378V23.3609H85.9445V22.2858C85.6421 22.7118 85.2345 23.0521 84.7613 23.2736C84.2881 23.495 83.7656 23.59 83.2448 23.5493C81.6752 23.5493 80.2783 22.7645 80.2783 20.8888ZM85.9288 20.2375V19.4527H84.987C83.5509 19.4527 82.7112 19.7666 82.7112 20.7162C82.7112 21.3676 83.1114 21.7992 84.0139 21.7992C85.1205 21.8306 85.9602 21.2263 85.9602 20.2375H85.9288Z" fill="white"/>
<path d="M90.0958 14.3986H92.5679V15.7641C92.8375 15.279 93.2342 14.8765 93.7154 14.5999C94.1966 14.3233 94.7441 14.1832 95.299 14.1946C95.8286 14.1522 96.3577 14.2821 96.8074 14.565C97.2571 14.8478 97.6034 15.2684 97.7946 15.7641C98.1242 15.2719 98.5721 14.8702 99.0973 14.596C99.6224 14.3217 100.208 14.1837 100.8 14.1946C102.456 14.1946 103.735 15.2383 103.735 17.6084V23.3295H101.279V17.9145C101.279 16.7687 100.769 16.2585 99.8743 16.2585C99.6363 16.2482 99.3989 16.2893 99.1782 16.3791C98.9576 16.4689 98.7589 16.6052 98.5957 16.7788C98.4326 16.9524 98.3088 17.1591 98.2328 17.3849C98.1569 17.6107 98.1305 17.8502 98.1556 18.0871V23.3609H95.6914V17.9145C95.6914 16.7687 95.1656 16.2585 94.2944 16.2585C94.0558 16.247 93.8175 16.2873 93.5959 16.3765C93.3743 16.4658 93.1746 16.602 93.0106 16.7757C92.8466 16.9494 92.7221 17.1566 92.6457 17.3829C92.5692 17.6093 92.5427 17.8495 92.5679 18.0871V23.3609H90.0958V14.3986Z" fill="white"/>
<path d="M105.431 14.3986H107.911V15.8034C108.206 15.312 108.624 14.9056 109.123 14.6237C109.622 14.3417 110.186 14.1939 110.759 14.1946C112.949 14.1946 114.683 15.8191 114.683 18.7699V18.9111C114.683 21.862 113.012 23.5179 110.759 23.5179C110.187 23.5414 109.618 23.4075 109.116 23.1308C108.614 22.8541 108.197 22.4451 107.911 21.9483V26.4059H105.431V14.3986ZM112.141 18.7934C112.141 16.9806 111.254 16.0938 110.006 16.0938C108.758 16.0938 107.824 16.9963 107.824 18.7934V18.9268C107.824 20.7162 108.68 21.5873 110.03 21.5873C111.379 21.5873 112.141 20.6769 112.141 18.9582V18.7934Z" fill="white"/>
<path fill-rule="evenodd" clip-rule="evenodd" d="M15.4626 6.89213C8.49879 6.89213 4.86709 12.7906 2.8337 18.5558C2.5879 19.2527 1.82368 19.6184 1.12676 19.3726C0.628295 19.1968 0.299272 18.7557 0.24225 18.2638C0.219548 18.068 0.239958 17.8641 0.309951 17.6656C2.37316 11.8159 6.58935 4.216 15.4626 4.216C20.1006 4.216 23.4204 7.28435 25.5674 10.9706C27.72 14.6665 28.8678 19.2429 29.1264 22.9379C29.145 23.2035 29.0839 23.4686 28.951 23.6992C27.7076 25.8576 25.6391 27.2642 23.2811 28.1257C20.929 28.9851 18.2044 29.3362 15.4734 29.3371C13.153 29.3733 10.8521 28.9089 8.72738 27.9756C6.59929 27.0407 4.6981 25.6575 3.15376 23.9203C2.82522 23.5508 2.72727 23.0302 2.89905 22.5665L2.90006 22.5638L2.90198 22.5586L2.90852 22.5412L2.93221 22.4787C2.95264 22.4252 2.98225 22.3485 3.02041 22.252C3.09666 22.059 3.20735 21.7857 3.34728 21.4587C3.62593 20.8075 4.02624 19.93 4.50712 19.044C4.98167 18.1696 5.56522 17.2296 6.22145 16.489C6.81969 15.8139 7.74957 14.9914 8.93977 14.9833L8.94884 14.9833C9.78986 14.9833 10.4807 15.3684 10.978 15.7385C11.4793 16.1117 11.9345 16.5859 12.2993 16.9719C12.3411 17.0162 12.3818 17.0593 12.4214 17.1013C12.7611 17.4615 13.0209 17.737 13.2678 17.9433C13.2955 17.9665 13.321 17.9869 13.3442 18.0049C13.4245 17.9229 13.5203 17.8154 13.6306 17.6787C14.0227 17.1925 14.4632 16.5076 14.8895 15.7744C15.3102 15.0509 15.693 14.322 15.9722 13.7707C16.1112 13.496 16.2235 13.2675 16.3005 13.1086C16.339 13.0291 16.3687 12.9672 16.3885 12.9257L16.4106 12.8791L16.4158 12.868L16.4169 12.8656C16.7306 12.1966 17.5274 11.9082 18.1965 12.2218C18.8656 12.5354 19.1538 13.3321 18.8402 14.0013L18.8373 14.0074L18.8303 14.0222L18.8046 14.0764C18.7823 14.1231 18.75 14.1907 18.7086 14.2761C18.6258 14.4468 18.5067 14.6892 18.3597 14.9795C18.0667 15.5583 17.6584 16.3362 17.203 17.1195C16.7533 17.893 16.2329 18.715 15.7135 19.3589C15.4559 19.6782 15.1639 19.9976 14.8482 20.2487C14.5691 20.4707 14.0768 20.7986 13.4457 20.7986C12.6112 20.7986 11.9536 20.3326 11.5517 19.9968C11.173 19.6803 10.7946 19.278 10.4768 18.9401C10.4348 18.8955 10.3939 18.852 10.3542 18.81C9.97741 18.4112 9.66941 18.1006 9.38 17.8852C9.12634 17.6964 8.99684 17.6653 8.95965 17.6603C8.95965 17.6603 8.95698 17.6613 8.95464 17.6622C8.91373 17.6766 8.66794 17.7632 8.22439 18.2638C7.7645 18.7828 7.29398 19.5193 6.85916 20.3205C6.43066 21.11 6.0663 21.907 5.80761 22.5115C5.77427 22.5894 5.74279 22.6639 5.71324 22.7345C6.89088 23.9079 8.27732 24.8549 9.80368 25.5254C11.5791 26.3053 13.5019 26.6927 15.4408 26.6611L15.4626 26.661C17.9939 26.661 20.3898 26.333 22.3627 25.6121C24.1778 24.949 25.5624 23.9825 26.423 22.6993C26.1314 19.411 25.0839 15.4577 23.2549 12.3175C21.3406 9.03086 18.7431 6.89213 15.4626 6.89213ZM13.1243 18.1951C13.1243 18.1951 13.1301 18.1906 13.1414 18.1849C13.1298 18.1927 13.1243 18.1951 13.1243 18.1951Z" fill="white"/>
</g>
<defs>
<clipPath id="clip0_1_633">
<rect width="114.552" height="33.3241" fill="white" transform="translate(0.233398)"/>
</clipPath>
</defs>
</svg>
