<svg width="34" height="34" viewBox="0 0 34 34" fill="none" xmlns="http://www.w3.org/2000/svg">
<path d="M17 29.7498C18.6743 29.7498 20.3323 29.42 21.8792 28.7793C23.4261 28.1386 24.8316 27.1994 26.0156 26.0154C27.1995 24.8315 28.1387 23.426 28.7794 21.8791C29.4202 20.3321 29.75 18.6742 29.75 16.9998C29.75 15.3255 29.4202 13.6675 28.7794 12.1206C28.1387 10.5737 27.1995 9.16817 26.0156 7.98423C24.8316 6.80028 23.4261 5.86112 21.8792 5.22037C20.3323 4.57963 18.6743 4.24984 17 4.24984C13.6184 4.24984 10.3754 5.59314 7.98435 7.98423C5.59326 10.3753 4.24996 13.6183 4.24996 16.9998C4.24996 20.3813 5.59326 23.6244 7.98435 26.0154C10.3754 28.4065 13.6184 29.7498 17 29.7498ZM32.5833 16.9998C32.5833 25.6061 25.6062 32.5832 17 32.5832C8.39371 32.5832 1.41663 25.6061 1.41663 16.9998C1.41663 8.39359 8.39371 1.4165 17 1.4165C25.6062 1.4165 32.5833 8.39359 32.5833 16.9998ZM13.4937 13.495C12.5638 14.4249 12.0414 15.6862 12.0414 17.0013C12.0414 18.3164 12.5638 19.5776 13.4937 20.5075C14.4236 21.4374 15.6849 21.9598 17 21.9598C18.3151 21.9598 19.5763 21.4374 20.5062 20.5075L21.5078 19.5045L23.511 21.5091L22.5094 22.5107C21.4197 23.6004 20.0314 24.3425 18.5199 24.6432C17.0085 24.9439 15.4418 24.7896 14.0181 24.1998C12.5943 23.6101 11.3774 22.6114 10.5212 21.3301C9.66503 20.0488 9.20805 18.5423 9.20805 17.0013C9.20805 15.4602 9.66503 13.9537 10.5212 12.6724C11.3774 11.3911 12.5943 10.3924 14.0181 9.80266C15.4418 9.21294 17.0085 9.05866 18.5199 9.35933C20.0314 9.66 21.4197 10.4021 22.5094 11.4918L23.511 12.4934L21.5078 14.4966L20.5062 13.495C20.0458 13.0345 19.4992 12.6693 18.8975 12.42C18.2959 12.1708 17.6511 12.0426 17 12.0426C16.3488 12.0426 15.704 12.1708 15.1024 12.42C14.5008 12.6693 13.9541 13.0345 13.4937 13.495Z" fill="#F2F2F2"/>
</svg>
