<svg width="34" height="34" viewBox="0 0 34 34" fill="none" xmlns="http://www.w3.org/2000/svg">
<path d="M34 6.37529V27.6253C34 28.8312 33.0809 29.7503 31.875 29.7503H29.75V10.4649L17 19.6236L4.25 10.4649V29.7503H2.125C0.919062 29.7503 0 28.8312 0 27.6253V6.37529C0 5.77179 0.227375 5.24054 0.608813 4.86441C0.807362 4.6655 1.04394 4.50861 1.30443 4.4031C1.56492 4.29759 1.84399 4.24562 2.125 4.25029H2.83369L17 14.5215L31.1663 4.25029H31.875C32.4785 4.25029 33.0098 4.47766 33.3912 4.86441C33.7726 5.24054 34 5.77179 34 6.37529Z" fill="#F2F2F2"/>
</svg>
