<svg width="30" height="30" viewBox="0 0 30 30" fill="none" xmlns="http://www.w3.org/2000/svg">
<path d="M14.7916 9.60938C17.7448 9.60938 20.1823 12.0469 20.1823 15C20.1823 18 17.7448 20.3906 14.7916 20.3906C11.7916 20.3906 9.40101 18 9.40101 15C9.40101 12.0469 11.7916 9.60938 14.7916 9.60938ZM14.7916 18.5156C16.7135 18.5156 18.2604 16.9688 18.2604 15C18.2604 13.0781 16.7135 11.5312 14.7916 11.5312C12.8229 11.5312 11.276 13.0781 11.276 15C11.276 16.9688 12.8698 18.5156 14.7916 18.5156ZM21.6354 9.42188C21.6354 10.125 21.0729 10.6875 20.3698 10.6875C19.6666 10.6875 19.1041 10.125 19.1041 9.42188C19.1041 8.71875 19.6666 8.15625 20.3698 8.15625C21.0729 8.15625 21.6354 8.71875 21.6354 9.42188ZM25.1979 10.6875C25.2916 12.4219 25.2916 17.625 25.1979 19.3594C25.1041 21.0469 24.7291 22.5 23.5104 23.7656C22.2916 24.9844 20.7916 25.3594 19.1041 25.4531C17.3698 25.5469 12.1666 25.5469 10.4323 25.4531C8.74476 25.3594 7.29163 24.9844 6.02601 23.7656C4.80726 22.5 4.43226 21.0469 4.33851 19.3594C4.24476 17.625 4.24476 12.4219 4.33851 10.6875C4.43226 9 4.80726 7.5 6.02601 6.28125C7.29163 5.0625 8.74476 4.6875 10.4323 4.59375C12.1666 4.5 17.3698 4.5 19.1041 4.59375C20.7916 4.6875 22.2916 5.0625 23.5104 6.28125C24.7291 7.5 25.1041 9 25.1979 10.6875ZM22.9479 21.1875C23.5104 19.8281 23.3698 16.5469 23.3698 15C23.3698 13.5 23.5104 10.2188 22.9479 8.8125C22.5729 7.92188 21.8698 7.17188 20.9791 6.84375C19.5729 6.28125 16.2916 6.42188 14.7916 6.42188C13.2448 6.42188 9.96351 6.28125 8.60413 6.84375C7.66663 7.21875 6.96351 7.92188 6.58851 8.8125C6.02601 10.2188 6.16663 13.5 6.16663 15C6.16663 16.5469 6.02601 19.8281 6.58851 21.1875C6.96351 22.125 7.66663 22.8281 8.60413 23.2031C9.96351 23.7656 13.2448 23.625 14.7916 23.625C16.2916 23.625 19.5729 23.7656 20.9791 23.2031C21.8698 22.8281 22.6198 22.125 22.9479 21.1875Z" fill="#F2F2F2"/>
</svg>
