<svg width="50" height="51" viewBox="0 0 50 51" fill="none" xmlns="http://www.w3.org/2000/svg">
<path d="M27.1447 5.02344C29.4884 5.02969 30.678 5.04219 31.7051 5.07135L32.1093 5.08594C32.5759 5.1026 33.0364 5.12344 33.5926 5.14844C35.8093 5.2526 37.3218 5.6026 38.6488 6.11719C40.0238 6.64635 41.1822 7.36302 42.3405 8.51927C43.4003 9.56038 44.2201 10.8203 44.7426 12.2109C45.2572 13.538 45.6072 15.0505 45.7114 17.2693C45.7364 17.8234 45.7572 18.2839 45.7739 18.7526L45.7864 19.1568C45.8176 20.1818 45.8301 21.3714 45.8343 23.7151L45.8364 25.2693V27.9984C45.8414 29.518 45.8255 31.0376 45.7884 32.5568L45.7759 32.9609C45.7593 33.4297 45.7384 33.8901 45.7134 34.4443C45.6093 36.663 45.2551 38.1734 44.7426 39.5026C44.2201 40.8933 43.4003 42.1532 42.3405 43.1943C41.2994 44.254 40.0395 45.0738 38.6488 45.5964C37.3218 46.1109 35.8093 46.4609 33.5926 46.5651L32.1093 46.6276L31.7051 46.6401C30.678 46.6693 29.4884 46.6839 27.1447 46.688L25.5905 46.6901H22.8634C21.3431 46.6955 19.8229 46.6795 18.303 46.6422L17.8988 46.6297C17.4043 46.611 16.9098 46.5894 16.4155 46.5651C14.1988 46.4609 12.6863 46.1109 11.3572 45.5964C9.96724 45.0736 8.7081 44.2538 7.6676 43.1943C6.60707 42.1534 5.78657 40.8935 5.26343 39.5026C4.74885 38.1755 4.39885 36.663 4.29468 34.4443L4.23218 32.9609L4.22176 32.5568C4.18336 31.0376 4.166 29.518 4.16968 27.9984V23.7151C4.16391 22.1955 4.17919 20.6759 4.21551 19.1568L4.2301 18.7526C4.24676 18.2839 4.2676 17.8234 4.2926 17.2693C4.39676 15.0505 4.74676 13.5401 5.26135 12.2109C5.78571 10.8197 6.60765 9.55976 7.66968 8.51927C8.70958 7.46 9.96799 6.64026 11.3572 6.11719C12.6863 5.6026 14.1968 5.2526 16.4155 5.14844C16.9697 5.12344 17.4322 5.1026 17.8988 5.08594L18.303 5.07344C19.8222 5.03642 21.3418 5.02045 22.8613 5.02552L27.1447 5.02344ZM25.003 15.4401C22.2403 15.4401 19.5908 16.5376 17.6373 18.4911C15.6838 20.4446 14.5863 23.0941 14.5863 25.8568C14.5863 28.6194 15.6838 31.269 17.6373 33.2225C19.5908 35.176 22.2403 36.2734 25.003 36.2734C27.7657 36.2734 30.4152 35.176 32.3687 33.2225C34.3222 31.269 35.4197 28.6194 35.4197 25.8568C35.4197 23.0941 34.3222 20.4446 32.3687 18.4911C30.4152 16.5376 27.7657 15.4401 25.003 15.4401ZM25.003 19.6068C25.8238 19.6066 26.6365 19.7682 27.3949 20.0821C28.1532 20.3961 28.8423 20.8563 29.4227 21.4366C30.0032 22.0169 30.4637 22.7058 30.7779 23.464C31.0921 24.2223 31.2539 25.035 31.2541 25.8557C31.2542 26.6765 31.0927 27.4892 30.7787 28.2476C30.4647 29.0059 30.0045 29.695 29.4242 30.2755C28.8439 30.8559 28.155 31.3164 27.3968 31.6306C26.6386 31.9448 25.8259 32.1066 25.0051 32.1068C23.3475 32.1068 21.7578 31.4483 20.5857 30.2762C19.4136 29.1041 18.7551 27.5144 18.7551 25.8568C18.7551 24.1992 19.4136 22.6095 20.5857 21.4374C21.7578 20.2652 23.3475 19.6068 25.0051 19.6068M35.9426 12.3151C35.2519 12.3151 34.5896 12.5895 34.1012 13.0778C33.6128 13.5662 33.3384 14.2286 33.3384 14.9193C33.3384 15.6099 33.6128 16.2723 34.1012 16.7607C34.5896 17.2491 35.2519 17.5234 35.9426 17.5234C36.6333 17.5234 37.2957 17.2491 37.784 16.7607C38.2724 16.2723 38.5468 15.6099 38.5468 14.9193C38.5468 14.2286 38.2724 13.5662 37.784 13.0778C37.2957 12.5895 36.6333 12.3151 35.9426 12.3151Z" fill="#F2F2F2"/>
</svg>
