<svg width="30" height="30" viewBox="0 0 30 30" fill="none" xmlns="http://www.w3.org/2000/svg">
<path d="M8.97913 24H4.61976V9.98438H8.97913V24ZM6.77601 8.10938C5.41663 8.10938 4.29163 6.9375 4.29163 5.53125C4.29163 4.17188 5.41663 3.04688 6.77601 3.04688C8.18226 3.04688 9.30726 4.17188 9.30726 5.53125C9.30726 6.9375 8.18226 8.10938 6.77601 8.10938ZM25.2448 24H20.9323V17.2031C20.9323 15.5625 20.8854 13.5 18.6354 13.5C16.3854 13.5 16.0573 15.2344 16.0573 17.0625V24H11.6979V9.98438H15.8698V11.9062H15.9166C16.526 10.8281 17.9323 9.65625 20.0416 9.65625C24.4479 9.65625 25.2916 12.5625 25.2916 16.3125V24H25.2448Z" fill="#F2F2F2"/>
</svg>
