<svg width="8" height="10" viewBox="0 0 8 10" fill="none" xmlns="http://www.w3.org/2000/svg">
<path d="M2.22222 4.54545H5.77778V3.18182C5.77778 2.67992 5.60417 2.25142 5.25694 1.89631C4.90972 1.54119 4.49074 1.36364 4 1.36364C3.50926 1.36364 3.09028 1.54119 2.74306 1.89631C2.39583 2.25142 2.22222 2.67992 2.22222 3.18182V4.54545ZM8 5.22727V9.31818C8 9.50758 7.93519 9.66856 7.80556 9.80114C7.67593 9.93371 7.51852 10 7.33333 10H0.666667C0.481481 10 0.324074 9.93371 0.194444 9.80114C0.0648148 9.66856 0 9.50758 0 9.31818V5.22727C0 5.03788 0.0648148 4.87689 0.194444 4.74432C0.324074 4.61174 0.481481 4.54545 0.666667 4.54545H0.888889V3.18182C0.888889 2.31061 1.19444 1.5625 1.80556 0.9375C2.41667 0.3125 3.14815 0 4 0C4.85185 0 5.58333 0.3125 6.19444 0.9375C6.80556 1.5625 7.11111 2.31061 7.11111 3.18182V4.54545H7.33333C7.51852 4.54545 7.67593 4.61174 7.80556 4.74432C7.93519 4.87689 8 5.03788 8 5.22727Z" fill="#9F9F9F"/>
</svg>
