<svg width="26" height="26" viewBox="0 0 26 26" fill="none" xmlns="http://www.w3.org/2000/svg">
<path d="M23.2384 17.6208L19.6401 17.2099C19.217 17.1602 18.7881 17.2071 18.3857 17.3469C17.9833 17.4868 17.6178 17.716 17.3167 18.0174L14.7101 20.6241C10.6887 18.5784 7.42 15.3096 5.37424 11.2883L7.99508 8.66744C8.60424 8.05827 8.90174 7.20827 8.80258 6.34411L8.39174 2.77411C8.31172 2.0829 7.98015 1.4453 7.46023 0.982862C6.94031 0.52042 6.2684 0.265468 5.57258 0.266605H3.12174C1.52091 0.266605 0.189241 1.59827 0.288407 3.19911C1.03924 15.2974 10.7151 24.9591 22.7992 25.7099C24.4001 25.8091 25.7317 24.4774 25.7317 22.8766V20.4258C25.7459 18.9949 24.6692 17.7908 23.2384 17.6208Z" fill="#F2F2F2"/>
</svg>
