<svg width="100" height="100" viewBox="0 0 100 100" fill="none" xmlns="http://www.w3.org/2000/svg">
<path d="M76.9232 33.4756C76.6935 32.3215 76.3032 31.2052 75.7638 30.1594C75.2001 29.1463 74.4994 28.2158 73.6813 27.3944C72.8378 26.5688 71.858 25.8954 70.785 25.4037C69.7262 24.87 68.5938 24.497 67.425 24.2969C66.2657 24.0737 64.9925 24.0737 63.8332 23.9644H35.2338C34.3417 23.9789 33.4515 24.0535 32.5694 24.1875C31.694 24.2904 30.8371 24.5142 30.0232 24.8525C29.7913 24.9619 29.4457 25.0756 29.2138 25.185C28.4439 25.5981 27.7119 26.0783 27.0263 26.62C26.7944 26.8431 26.5625 26.9525 26.3307 27.1712C25.4779 27.962 24.7728 28.8983 24.2482 29.9362C23.6751 30.9673 23.283 32.089 23.0888 33.2525C22.9167 34.3879 22.8014 35.5312 22.7432 36.6781V63.0987C22.7435 64.2493 22.8593 65.3969 23.0888 66.5244C23.3185 67.6785 23.7087 68.7948 24.2482 69.8406C24.8118 70.8537 25.5126 71.7841 26.3307 72.6056C27.1741 73.4311 28.154 74.1046 29.2269 74.5962C30.2858 75.1299 31.4182 75.503 32.5869 75.7031C33.7463 75.9262 35.0194 75.9262 36.1788 76.0356H63.8375C65.0425 76.0349 66.2448 75.9236 67.4294 75.7031C68.5982 75.503 69.7306 75.1299 70.7894 74.5962C71.8397 74.0655 72.8139 73.396 73.6857 72.6056C74.5384 71.8148 75.2436 70.8785 75.7682 69.8406C76.3412 68.8095 76.7334 67.6879 76.9275 66.5244C77.0996 65.3889 77.2149 64.2456 77.2732 63.0987V36.9012C77.2714 35.7505 77.1542 34.6029 76.9232 33.4756ZM68.7025 66.5244C66.1869 61.8125 61.5363 63.2694 59.1869 64.2187C54.3263 66.9006 47.6457 67.1762 40.9213 64.4244C35.6784 62.2971 31.1956 58.6435 28.0544 53.9375C29.5142 55.055 31.1091 55.9839 32.8013 56.7025C39.7444 59.8087 46.6832 59.5944 51.57 56.7025C44.6138 51.6012 38.7075 44.9687 34.3063 39.5525C33.4378 38.6371 32.6625 37.6376 31.9919 36.5687C37.3119 41.2106 45.7732 47.0687 48.7832 48.7269C44.4858 44.3231 40.5365 39.5927 36.9707 34.5781C42.8975 40.3377 49.4193 45.4516 56.4263 49.8337C56.7369 50 56.9775 50.14 57.17 50.2712C57.3752 49.7697 57.5519 49.257 57.6994 48.7356C59.3225 43.0962 57.4675 36.6869 53.4163 31.38C62.7963 36.7919 68.3744 46.9594 66.0382 55.4731C65.9769 55.705 65.9113 55.9106 65.8413 56.1512L65.9244 56.2475C70.5619 61.7731 69.28 67.6312 68.7025 66.5244Z" fill="white"/>
</svg>
