<svg width="100" height="100" viewBox="0 0 100 100" fill="none" xmlns="http://www.w3.org/2000/svg">
<path d="M65.5868 50.7467C64.612 49.7718 63.4544 48.9989 62.1803 48.4723C60.9062 47.9457 59.5406 47.6757 58.162 47.6779C56.7833 47.6801 55.4187 47.9543 54.1462 48.4849C52.8738 49.0155 51.7186 49.7921 50.7468 50.77C49.7704 51.7433 48.9957 52.8997 48.4671 54.173C47.9385 55.4463 47.6664 56.8114 47.6664 58.19C47.6664 59.5686 47.9385 60.9337 48.4671 62.207C48.9957 63.4803 49.7704 64.6367 50.7468 65.61C52.4296 67.2854 54.6295 68.3425 56.989 68.6094C57.8373 68.7053 58.6883 68.6971 59.524 68.5888C62.1495 68.2486 65.0731 68.3925 66.9571 70.2523L69.3707 72.6348C70.2723 73.5248 71.7233 73.5202 72.6192 72.6243C73.5171 71.7264 73.5195 70.2713 72.6244 69.3705L70.2453 66.9759C68.3679 65.0864 68.2361 62.1366 68.58 59.4953C68.9891 56.3528 67.9522 53.0961 65.5868 50.7467ZM62.2968 62.2967C60.0102 64.5833 56.3235 64.56 54.0368 62.2967C51.7735 60.01 51.7735 56.3233 54.0602 54.0367C56.3235 51.7733 60.0102 51.7733 62.2968 54.0367C64.5602 56.3233 64.5602 60.01 62.2968 62.2967ZM47.4335 68.9C44.6156 66.058 41.4474 63.301 37.7737 61.7131C33.8301 60.0086 31.3335 57.4861 31.3335 54.6667V61.6667C31.3335 66.2566 37.9517 70.0702 46.6795 70.8529C47.6562 70.9405 48.1165 69.6037 47.4335 68.9ZM31.3335 43V50C31.3335 53.8319 35.9488 57.1286 42.5422 58.539C42.7784 58.5896 43.0002 58.4083 43.0002 58.1667C43.0002 54.9118 41.1326 51.4384 38.1226 50.1998C33.973 48.4921 31.3335 45.904 31.3335 43ZM50.0002 29C39.6868 29 31.3335 33.1767 31.3335 38.3333C31.3335 43 38.3335 46.92 47.3168 47.6667C47.3913 47.6667 47.4625 47.636 47.5143 47.5824C50.3078 44.6937 54.1458 43 58.1668 43C58.9976 43 59.8248 43.0679 60.64 43.2022C63.0609 43.6011 65.839 43.8749 67.2812 41.8899C68.0415 40.8434 68.5188 39.6184 68.6668 38.3333C68.6668 33.1767 60.3135 29 50.0002 29Z" fill="white"/>
</svg>
