<svg width="100" height="100" viewBox="0 0 100 100" fill="none" xmlns="http://www.w3.org/2000/svg">
<mask id="mask0_2366_1143" style="mask-type:luminance" maskUnits="userSpaceOnUse" x="22" y="22" width="56" height="56">
<path d="M22 22H78V78H22V22Z" fill="white"/>
</mask>
<g mask="url(#mask0_2366_1143)">
<path d="M50 22C65.4 22 78 34.6 78 50C78 65.4 65.4 78 50 78C34.6 78 22 65.4 22 50C22 34.6 34.6 22 50 22ZM44.4 59.275C44.75 60.8492 44.75 62.2492 44.4 63.475L44.225 64C44.225 64.175 44.05 64.35 44.05 64.35C43.7 65.05 43.35 65.575 42.825 66.275C41.25 68.025 38.975 68.725 37.925 68.2C36.875 67.675 37.4 65.05 39.325 63.125C41.425 61.025 44.225 59.625 44.225 59.625L44.4 59.275ZM67.5 33.9C66.275 29 58.05 27.25 50.175 30.05C45.625 31.8 40.55 34.425 36.875 37.75C32.5 41.775 31.975 45.275 32.15 46.675C33.2 51.75 40.2 55.25 43.175 57.7C42.3 58.05 36 61.2 34.6 64.525C33.025 68.025 34.775 70.475 36 70.65C39.675 71.7 43.525 69.775 45.45 66.8C47.375 63.825 47.2 60.15 46.325 58.225C47.6863 57.8044 49.1334 57.7441 50.525 58.05C55.425 58.575 56.475 61.725 56.125 62.95C55.775 64.175 54.9 64.875 54.55 65.225C54.2 65.4 54.025 65.575 54.2 65.575C54.2 65.75 54.375 65.75 54.725 65.75C55.075 65.75 57.35 64.7 57.35 62.25C57.525 59.275 54.55 55.95 49.475 55.95C47.375 55.95 45.975 56.125 45.1 56.475C45.1 56.3 44.925 56.3 44.925 56.3C41.775 52.975 36 50.525 36.175 45.975C36.175 44.4 36.875 40.025 47.375 34.775C55.95 30.4 62.95 31.625 64.175 34.25C65.925 37.925 60.5 44.925 51.575 45.975C48.075 46.325 46.325 45.1 45.975 44.575C45.45 44.05 45.45 44.05 45.275 44.05C44.925 44.225 45.1 44.575 45.275 44.925C45.625 45.625 46.675 46.85 48.6 47.55C50.175 48.075 54.2 48.425 59.1 46.5C64.525 44.4 68.725 38.625 67.5 33.725V33.9Z" fill="white"/>
</g>
</svg>
