<svg width="100" height="100" viewBox="0 0 100 100" fill="none" xmlns="http://www.w3.org/2000/svg">
<path d="M65.4185 24C68.8254 24 71.5033 26.9142 71.216 30.3089L68.2614 65.2143C68.0806 67.3505 66.7396 69.2142 64.7716 70.0646L52.1016 75.5389C50.6779 76.154 49.0676 76.1753 47.6282 75.598L33.8338 70.0657C31.7322 69.2228 30.3105 67.2372 30.1897 64.9761L28.3275 30.1287C28.1495 26.7981 30.8021 24 34.1374 24H65.4185ZM37.4076 57.6453V57.6546L37.458 58.5882C37.5798 60.848 39.001 62.8322 41.1013 63.6748L47.7086 66.3256C49.099 66.8835 50.651 66.8835 52.0414 66.3256L58.6469 63.6755C60.7482 62.8325 62.1696 60.8471 62.2904 58.5862L62.6455 51.9424C62.8235 48.6119 60.1709 45.8137 56.8356 45.8137H50.5703C49.8066 45.8137 49.5591 44.7872 50.2388 44.4391L62.0263 38.4025C62.8816 37.9645 63.4393 37.1044 63.4901 36.1448C63.5719 34.6015 62.3426 33.3052 60.797 33.3052H38.343C36.9387 33.3052 35.8513 34.5342 36.0222 35.928C36.1663 37.1023 37.1647 37.9839 38.3478 37.9815L49.8772 37.9578C50.6223 37.9578 50.8638 38.9594 50.2006 39.299L38.3523 45.3671C37.4046 45.8525 36.8311 46.8497 36.888 47.9128C36.9648 49.3447 38.1482 50.4663 39.5821 50.4663H53.0405C55.9351 50.4663 58.2372 52.8949 58.0826 55.7853C57.9776 57.7481 56.7431 59.4716 54.9185 60.2027L52.0402 61.3559C50.6505 61.9128 49.0996 61.9124 47.7101 61.355L43.3294 59.5977C42.4193 59.2327 41.8035 58.3731 41.7504 57.3941L41.7103 56.4901C41.6585 55.3263 40.7 54.4094 39.535 54.4094C38.29 54.4094 37.2985 55.4515 37.3604 56.695L37.4076 57.6453Z" fill="white"/>
</svg>
