<svg width="100" height="100" viewBox="0 0 100 100" fill="none" xmlns="http://www.w3.org/2000/svg">
<g clip-path="url(#clip0_2366_1120)">
<path d="M62.5156 41.4979C60.8125 41.9354 59.4063 42.1698 57.9688 42.6854C56.8281 42.9823 55.6719 43.2948 54.3438 43.6386L54.25 43.6542C53.5938 43.8417 53.5313 43.8573 52.9219 43.1542C52.1875 42.3261 51.6563 41.7948 50.6406 41.2948C47.5625 39.7948 44.5938 40.2323 41.8281 42.0292C38.5156 44.1698 36.8125 47.3417 36.8594 51.2792C36.9063 55.1854 39.5781 58.3886 43.2969 58.9198C46.7344 59.3573 49.5156 58.2011 51.7031 55.7167C52.0313 55.3104 52.3281 54.8886 52.6563 54.4198C52.7813 54.2636 52.8906 54.0917 53.0156 53.9042H43.625C42.6094 53.9042 42.3594 53.2792 42.7031 52.4511C43.3281 50.9354 44.5 48.4042 45.1875 47.1386C45.3281 46.8573 45.6719 46.2323 46.2656 46.2323H62.0625C62.7656 44.1386 63.9063 42.0292 65.4375 40.0292C68.9844 35.3573 73.1406 32.9198 79.0625 31.9042C84.0313 31.0292 88.7031 31.5136 92.9531 34.3886C96.7969 37.0136 99.1719 40.5761 99.8125 45.2479C100.641 51.8261 98.7344 57.1698 94.0781 61.7479C91 65.0136 87.0625 67.0604 82.5313 67.9823C81.6563 68.1386 80.7969 68.2167 79.9531 68.2948C79.5 68.3261 79.0625 68.3729 78.625 68.4198C74.2031 68.3261 70.1563 67.0604 66.75 64.1386C64.3594 62.0604 62.7031 59.5136 61.8906 56.5604C61.3125 57.7011 60.6406 58.8104 59.7031 59.8573C56.3281 64.4823 51.75 67.3573 45.9688 68.1229C41.1875 68.7636 36.7656 67.8417 32.8594 64.9198C29.2656 62.1854 27.2188 58.5917 26.6875 54.1073C26.0469 48.7948 27.6094 43.8886 30.8125 39.8417C34.2813 35.3104 38.8594 32.4355 44.4531 31.4198C49.0313 30.4511 53.4063 31.123 57.3594 33.8105C59.9375 35.5136 61.7813 37.8417 63 40.6698C63.2969 41.1073 63.0938 41.3573 62.5156 41.4979ZM7.54689 42.3729C7.35157 42.3729 7.30314 42.2792 7.40001 42.1229L8.42345 40.8104C8.52032 40.6698 8.76407 40.5761 8.95939 40.5761H26.3438C26.5313 40.5761 26.5781 40.7167 26.4844 40.8573L25.6563 42.1229C25.5625 42.2792 25.3125 42.4198 25.1719 42.4198L7.54689 42.3729ZM0.194699 46.8573C1.15853e-05 46.8573 -0.0487384 46.7479 0.0487616 46.6073L1.07111 45.2948C1.16861 45.1542 1.41204 45.0448 1.60626 45.0448H23.8125C24 45.0448 24.0938 45.2011 24.0469 45.3417L23.6563 46.5136C23.6094 46.7011 23.4219 46.8104 23.2188 46.8104L0.194699 46.8573ZM11.8313 51.0448C11.7344 51.1854 11.7828 51.3261 11.9766 51.3261L22.5938 51.3729C22.7344 51.3729 22.9375 51.2323 22.9375 51.0448L23.0313 49.8729C23.0313 49.6698 22.9375 49.5292 22.7344 49.5292H13C12.8047 49.5292 12.611 49.6698 12.5125 49.8261L11.8313 51.0448ZM90.1875 48.2323C90.1563 47.8261 90.1406 47.4823 90.0781 47.1386C89.2031 42.3261 84.7656 39.5917 80.1406 40.6698C75.6094 41.6854 72.6875 44.5604 71.625 49.1386C70.75 52.9354 72.5938 56.7792 76.0938 58.3417C78.7813 59.5136 81.4531 59.3729 84.0313 58.0448C87.875 55.9198 89.9688 52.9354 90.2188 48.7479C90.2031 48.5604 90.2031 48.3886 90.1875 48.2323Z" fill="white"/>
</g>
<defs>
<clipPath id="clip0_2366_1120">
<rect width="100" height="100" fill="white"/>
</clipPath>
</defs>
</svg>
