<svg width="100" height="100" viewBox="0 0 100 100" fill="none" xmlns="http://www.w3.org/2000/svg">
<path d="M61.2116 24.3335C59.1579 24.3527 57.1157 24.643 55.1379 25.1968L54.9979 25.2388C53.7527 25.0253 52.4929 24.9075 51.2296 24.8865C48.6326 24.8422 46.3996 25.4535 44.6029 26.4732C42.8296 25.8758 39.1523 24.8468 35.2766 25.0522C32.5769 25.1945 29.6323 25.9902 27.4506 28.2255C25.2736 30.4608 24.1233 33.9188 24.3659 38.6252C24.4313 39.9248 24.8116 42.0412 25.4463 44.7852C26.0763 47.5268 26.9676 50.7352 28.0759 53.6635C29.1843 56.5918 30.3999 59.2262 32.2993 61.0135C33.2466 61.9095 34.5509 62.6632 36.0886 62.6002C37.1689 62.5582 38.1466 62.0985 38.9889 61.4195C39.3996 61.9445 39.8383 62.1732 40.2373 62.3855C40.7389 62.6515 41.2289 62.8335 41.7353 62.9548C43.1374 63.3144 44.5978 63.3866 46.0286 63.1672C46.6516 63.0668 47.3073 62.8708 47.9606 62.5908C47.9839 63.2955 48.0119 63.9862 48.0423 64.6862C48.1309 66.9028 48.1893 68.9492 48.8753 70.7435C48.9849 71.0375 49.2859 72.5472 50.4783 73.8795C51.6683 75.2142 54.0016 76.0448 56.6569 75.4942C58.5306 75.1045 60.9153 74.4022 62.4973 72.2182C64.0606 70.0575 64.7676 66.9588 64.9076 61.9305C64.9426 61.6598 64.9846 61.4288 65.0289 61.2118L65.4023 61.2445H65.4443C67.4439 61.3332 69.6139 61.0578 71.4269 60.2412C73.0323 59.5178 74.2456 58.7898 75.1299 57.4948C75.3516 57.1752 75.5943 56.7878 75.6596 56.1182C75.7249 55.4532 75.3329 54.4078 74.6773 53.9272C73.3636 52.9612 72.5399 53.3275 71.6556 53.5072C70.7845 53.6938 69.9009 53.7973 69.0049 53.8175C71.5553 49.6548 73.3823 45.2308 74.4253 41.3155C75.0413 39.0055 75.3889 36.8752 75.4169 35.0132C75.4449 33.1512 75.2886 31.5015 74.1383 30.0735C70.5426 25.6168 65.4863 24.3848 61.5756 24.3428C61.4543 24.3397 61.3329 24.3389 61.2116 24.3405V24.3335ZM61.1089 25.7032C64.8073 25.6682 69.5346 26.6762 72.9273 30.8832C73.6903 31.8282 73.9166 33.2095 73.8909 34.9128C73.8629 36.6138 73.5386 38.6485 72.9459 40.8792C71.7956 45.2005 69.6209 50.2358 66.5573 54.7578C66.666 54.8332 66.7836 54.8951 66.9073 54.9422C67.5466 55.1988 69.0026 55.4182 71.9123 54.8395C72.6426 54.6878 73.1793 54.5875 73.7346 54.9982C73.8675 55.1085 73.9731 55.248 74.0431 55.4058C74.1131 55.5637 74.1457 55.7356 74.1383 55.9082C74.1074 56.1688 74.0084 56.4167 73.8513 56.6268C73.2913 57.4458 72.1806 58.2228 70.7573 58.8622C69.4996 59.4315 67.6936 59.7278 66.0929 59.7465C65.2903 59.7535 64.5506 59.6928 63.9229 59.5038L63.8809 59.4898C63.6383 61.7555 63.0806 66.2332 62.7189 68.2748C62.4273 69.9222 61.9186 71.2312 60.9456 72.2112C59.9749 73.1912 58.6029 73.7815 56.7549 74.1665C54.4659 74.6425 52.7976 74.1292 51.7219 73.2495C50.6486 72.3745 50.1563 71.2102 49.8599 70.4962C49.6569 70.0062 49.5519 69.3692 49.4493 68.5175C49.3364 67.4978 49.2609 66.4744 49.2229 65.4492C49.156 63.6518 49.1342 61.853 49.1576 60.0545C48.2009 60.9015 47.0109 61.4662 45.7346 61.6785C44.2179 61.9282 42.8599 61.6832 42.0503 61.4872C41.6533 61.3893 41.2695 61.2444 40.9069 61.0555C40.5289 60.8618 40.1719 60.6425 39.9339 60.2085C39.7937 59.9608 39.7489 59.6703 39.8079 59.3918C39.8843 59.1089 40.0536 58.8599 40.2886 58.6848C40.7273 58.3395 41.3036 58.1482 42.1739 57.9708C43.7606 57.6558 44.3136 57.4388 44.6496 57.1798C44.9366 56.9582 45.2609 56.5102 45.8349 55.8498L45.8279 55.7635C44.805 55.7335 43.8021 55.4718 42.8949 54.9982C42.5659 55.3342 40.8766 57.0678 38.8163 59.4712C37.9506 60.4768 36.9939 61.0532 35.9836 61.0952C34.9733 61.1372 34.0609 60.6425 33.2863 59.9145C31.7346 58.4538 30.4979 55.9408 29.4199 53.1012C28.3466 50.2592 27.4693 47.0952 26.8486 44.4002C26.2233 41.7052 25.8546 39.5328 25.8033 38.4852C25.5699 34.0308 26.6433 31.0302 28.4866 29.1378C30.3299 27.2455 32.8546 26.5268 35.3186 26.3915C39.7379 26.1442 43.9356 27.6398 44.7849 27.9618C46.4206 26.8838 48.5276 26.2118 51.1619 26.2538C52.4106 26.2712 53.6533 26.4277 54.8673 26.7205L54.9116 26.7018C55.4467 26.5198 55.9896 26.3674 56.5403 26.2445C58.0394 25.9061 59.5699 25.7262 61.1066 25.7078L61.1089 25.7032ZM61.4426 27.1358H61.1229C59.8605 27.1528 58.6026 27.2903 57.3663 27.5465C59.8203 28.6153 61.9765 30.2669 63.6476 32.3578C64.66 33.6087 65.4997 34.99 66.1443 36.4645C66.3869 37.0292 66.5503 37.5075 66.6413 37.8762C66.6879 38.0628 66.7206 38.2192 66.7299 38.3825C66.7386 38.4859 66.7299 38.59 66.7043 38.6905L66.6903 38.7185C66.7579 40.5922 66.2796 41.8615 66.2213 43.6488C66.1769 44.9462 66.5176 46.4698 66.6016 48.1288C66.6809 49.6922 66.4873 51.4072 65.4419 53.0918C65.529 53.1945 65.613 53.2972 65.6939 53.3998C68.4589 49.1765 70.4539 44.5005 71.5156 40.5175C72.0826 38.3708 72.3859 36.4272 72.4116 34.8872C72.4349 33.3472 72.1386 32.2295 71.7606 31.7652C68.8019 28.0948 64.8003 27.1615 61.4426 27.1358ZM50.8843 27.6818C48.2779 27.6865 46.4066 28.4518 44.9903 29.5952C43.5273 30.7782 42.5473 32.3952 41.9033 34.0542C41.2799 35.7121 40.8988 37.4512 40.7716 39.2178L40.8019 39.2015C41.5883 38.7722 42.6219 38.3452 43.7279 38.0978C44.8363 37.8505 46.0286 37.7735 47.1089 38.1795C48.1893 38.5855 49.0829 39.5422 49.4073 40.9935C50.9589 47.9608 48.9243 50.5508 48.1729 52.5038C47.8911 53.2126 47.6481 53.9363 47.4449 54.6715C47.5383 54.6451 47.6324 54.6264 47.7273 54.6155C48.1372 54.5933 48.5461 54.6735 48.9173 54.8488C49.6733 55.1522 50.1913 55.7868 50.4713 56.5148C50.5444 56.7077 50.5965 56.9099 50.6276 57.1215C50.6587 57.2102 50.6735 57.3012 50.6719 57.3945C50.5881 60.0587 50.5974 62.725 50.6999 65.3885C50.7513 66.5412 50.8259 67.5538 50.9216 68.3542C51.0149 69.1522 51.1503 69.7588 51.2366 69.9642C51.5166 70.6502 51.9296 71.5462 52.6763 72.1552C53.4229 72.7642 54.4893 73.1678 56.4423 72.7618C58.1363 72.4095 59.1816 71.9218 59.8816 71.2148C60.5769 70.5125 60.9946 69.5348 61.2606 68.0345C61.6596 65.7875 62.4623 59.2752 62.5579 58.0478C62.5159 57.1262 62.6559 56.4145 62.9593 55.8732C63.2743 55.3178 63.7596 54.9772 64.1773 54.7928C64.3873 54.6995 64.5833 54.6388 64.7443 54.5945C64.5727 54.3572 64.3937 54.1253 64.2076 53.8992C63.6042 53.1933 63.1095 52.4014 62.7399 51.5495C62.5619 51.1991 62.3728 50.8543 62.1729 50.5158C61.8813 50.0025 61.5103 49.3608 61.1229 48.6398C60.3459 47.1955 59.5013 45.4455 59.0626 43.7398C58.6263 42.0388 58.5609 40.2772 59.6809 39.0335C60.6749 37.9298 62.4156 37.4725 65.0313 37.7292C64.9543 37.5052 64.9076 37.3185 64.7769 37.0198C64.1867 35.6641 63.4151 34.3949 62.4833 33.2468C60.2666 30.4982 56.6803 27.7728 51.1363 27.6842H50.8843V27.6818ZM36.2403 27.7915C35.9603 27.7915 35.6803 27.7993 35.4003 27.8148C33.1743 27.9385 31.0696 28.5662 29.5646 30.1155C28.0549 31.6625 27.0633 34.2012 27.2779 38.4058C27.3223 39.1992 27.6793 41.4298 28.2906 44.0758C28.9019 46.7265 29.7699 49.8415 30.8106 52.5925C31.8513 55.3458 33.1159 57.7422 34.3153 58.8762C34.9196 59.4432 35.4446 59.6718 35.9206 59.6532C36.3989 59.6298 36.9729 59.3638 37.6776 58.5448C38.9609 57.0431 40.2916 55.5825 41.6676 54.1652C40.6954 53.3499 39.9469 52.3003 39.4929 51.1155C39.0426 49.9419 38.9059 48.6713 39.0963 47.4288C39.3226 45.8468 39.3529 44.3675 39.3273 43.2008C39.2993 42.0622 39.2153 41.3062 39.2153 40.8325V40.7672C39.2129 38.3011 39.6547 35.8549 40.5196 33.5455C41.1356 31.9542 42.0549 30.3372 43.4339 29.0282C42.0806 28.5965 39.6773 27.9385 37.0756 27.8148C36.7958 27.7998 36.5158 27.7921 36.2356 27.7915H36.2403ZM63.5729 39.0895C62.0773 39.1082 61.2373 39.4838 60.7963 39.9738C60.1709 40.6692 60.1126 41.8872 60.4999 43.3898C60.8873 44.8925 61.6829 46.5748 62.4343 47.9702C62.8076 48.6702 63.1716 49.3002 63.4656 49.8088C63.7619 50.3222 63.9789 50.6862 64.1096 50.9988C64.2341 51.2804 64.3647 51.5378 64.5016 51.7712C65.0803 50.5835 65.1853 49.4192 65.1246 48.2035C65.0476 46.7008 64.6883 45.1632 64.7419 43.6068C64.8003 41.7868 65.1713 40.5992 65.2039 39.1922C64.6627 39.1262 64.1181 39.0919 63.5729 39.0895ZM45.4196 39.3345C44.9625 39.338 44.5072 39.3912 44.0616 39.4932C43.1757 39.702 42.3208 40.0252 41.5183 40.4545C41.2492 40.5945 40.9925 40.7571 40.7483 40.9422L40.7016 40.9842C40.7156 41.2968 40.7786 42.0552 40.8066 43.1682C40.8299 44.3885 40.8019 45.9448 40.5593 47.6248C40.0319 51.2835 42.7666 54.3122 45.9819 54.3168C46.1686 53.5655 46.4789 52.8048 46.7869 52.0022C47.6829 49.6618 49.4446 47.9562 47.9606 41.2945C47.7179 40.2048 47.2373 39.7638 46.5746 39.5142C46.2035 39.3853 45.8123 39.3245 45.4196 39.3345ZM62.8729 39.7708H62.9849C63.1312 39.7755 63.2634 39.7911 63.3816 39.8175C63.4889 39.8391 63.5916 39.8794 63.6849 39.9365C63.7274 39.9615 63.7642 39.9952 63.7927 40.0355C63.8213 40.0757 63.841 40.1215 63.8506 40.1698V40.1885C63.8567 40.291 63.8288 40.3927 63.7713 40.4778C63.7062 40.5955 63.6244 40.7031 63.5286 40.7975C63.3025 41.0375 63.0043 41.1972 62.6793 41.2525C62.3606 41.2902 62.0391 41.2115 61.7739 41.0308C61.6672 40.9603 61.5706 40.8755 61.4869 40.7788C61.4161 40.7033 61.3677 40.6096 61.3469 40.5082C61.3419 40.4583 61.3476 40.4079 61.3637 40.3603C61.3798 40.3128 61.4059 40.2694 61.4403 40.2328C61.5149 40.1545 61.6025 40.0898 61.6993 40.0415C62.0689 39.8718 62.4688 39.7782 62.8753 39.7662L62.8729 39.7708ZM45.6343 40.1302C45.7509 40.1302 45.8731 40.1395 46.0006 40.1582C46.3366 40.2048 46.6376 40.2912 46.8663 40.4195C46.9783 40.4771 47.0763 40.5525 47.1603 40.6458C47.2038 40.6972 47.2365 40.7539 47.2583 40.8162C47.28 40.8784 47.287 40.9429 47.2793 41.0098C47.2581 41.1336 47.2004 41.2481 47.1136 41.3388C47.0233 41.4475 46.9171 41.5419 46.7986 41.6188C46.5088 41.8162 46.1573 41.9016 45.8093 41.8592C45.4562 41.8022 45.1316 41.6308 44.8853 41.3715C44.7829 41.2671 44.695 41.1493 44.6239 41.0215C44.5513 40.9096 44.5192 40.7762 44.5329 40.6435C44.5656 40.4102 44.7639 40.2935 44.9529 40.2235C45.1714 40.1542 45.4008 40.1257 45.6296 40.1395L45.6343 40.1302ZM65.6076 55.8382H65.6006C65.2763 55.9548 65.0103 56.0015 64.7839 56.0948C64.5585 56.1785 64.3716 56.3421 64.2589 56.5545C64.1189 56.7995 64.0023 57.2358 64.0373 57.9778C64.1378 58.0442 64.248 58.0945 64.3639 58.1272C64.7396 58.2392 65.3719 58.3138 66.0789 58.3022C67.4836 58.2858 69.2149 57.9685 70.1343 57.5532C70.8879 57.2125 71.5879 56.7692 72.2133 56.2372C69.1403 56.8532 67.4066 56.6898 66.3403 56.2628C66.0773 56.1555 65.8306 56.0141 65.6076 55.8382ZM47.9023 56.0365H47.8556C47.7389 56.0458 47.5686 56.0832 47.2419 56.4378C46.4719 57.2732 46.2059 57.7958 45.5713 58.2858C44.9413 58.7758 44.1176 59.0348 42.4749 59.3615C41.9546 59.4642 41.6583 59.5785 41.4576 59.6695C41.5229 59.7208 41.5159 59.7348 41.6116 59.7838C41.8519 59.9122 42.1623 60.0242 42.4096 60.0872C43.1166 60.2575 44.2763 60.4582 45.4873 60.2575C46.6983 60.0568 47.9559 59.4945 49.0293 58.0338C49.2159 57.7818 49.2346 57.4085 49.0829 57.0072C48.9266 56.6105 48.5906 56.2652 48.3526 56.1672C48.2106 56.1002 48.0584 56.0576 47.9023 56.0412V56.0365Z" fill="white"/>
</svg>
