<svg width="100" height="100" viewBox="0 0 100 100" fill="none" xmlns="http://www.w3.org/2000/svg">
<g clip-path="url(#clip0_2366_1155)">
<mask id="mask0_2366_1155" style="mask-type:luminance" maskUnits="userSpaceOnUse" x="22" y="22" width="56" height="56">
<path d="M22 22H78V78H22V22Z" fill="white"/>
</mask>
<g mask="url(#mask0_2366_1155)">
<path d="M76.6677 21.9551H23.33C23.1551 21.9551 22.982 21.9896 22.8205 22.0565C22.659 22.1235 22.5123 22.2217 22.3887 22.3455C22.2652 22.4692 22.1673 22.6161 22.1006 22.7777C22.0339 22.9394 21.9997 23.1126 22 23.2874V76.6251C21.9997 76.8001 22.0339 76.9735 22.1008 77.1353C22.1676 77.2971 22.2658 77.4441 22.3895 77.5679C22.5133 77.6916 22.6603 77.7898 22.8221 77.8566C22.9839 77.9235 23.1573 77.9577 23.3323 77.9574H76.67C76.8451 77.9577 77.0184 77.9235 77.1802 77.8566C77.342 77.7898 77.489 77.6916 77.6128 77.5679C77.7366 77.4441 77.8347 77.2971 77.9015 77.1353C77.9684 76.9735 78.0026 76.8001 78.0023 76.6251V23.2851C78.0023 23.11 77.9678 22.9367 77.9006 22.775C77.8335 22.6134 77.7351 22.4665 77.6111 22.343C77.4871 22.2194 77.34 22.1215 77.1781 22.055C77.0162 21.9884 76.8427 21.9545 76.6677 21.9551ZM55.334 50.2414C55.334 51.1477 54.5993 51.8824 53.693 51.8824H50.3087C49.4024 51.8824 48.6677 52.6171 48.6677 53.5234V70.9801C48.6677 71.8864 47.933 72.6211 47.0266 72.6211H44.9747C44.0684 72.6211 43.3337 71.8864 43.3337 70.9801V53.5234C43.3337 52.6171 42.599 51.8824 41.6926 51.8824H38.3084C37.402 51.8824 36.6673 51.1477 36.6673 50.2414V48.9291C36.6673 48.0228 37.402 47.2881 38.3084 47.2881H53.693C54.5993 47.2881 55.334 48.0228 55.334 48.9291V50.2414ZM56.8205 71.1794L56.8231 69.1799C56.8248 67.827 58.4581 66.9465 59.7217 67.4301C60.7987 67.8423 62.0997 68.1761 63.489 68.1761C67.122 68.1761 66.982 65.8007 66.982 65.4741C66.982 62.0277 56.6873 62.0278 56.6873 54.3884C56.6873 45.8556 66.8087 47.0978 70.4239 47.8137C71.1721 47.9619 71.6679 48.6394 71.6391 49.4017L71.6125 50.107C71.564 51.389 70.0692 52.1999 68.8468 51.8106C68.0414 51.5542 67.1118 51.3598 66.1443 51.3598C63.3023 51.3598 62.278 52.7131 62.278 54.1551C62.278 57.8814 72.666 57.5104 72.666 65.0098C72.666 76.5598 57.1795 71.4935 57.1795 71.4935" fill="white"/>
</g>
</g>
<defs>
<clipPath id="clip0_2366_1155">
<rect x="22" y="22" width="56" height="56" rx="6.5641" fill="white"/>
</clipPath>
</defs>
</svg>
