<svg width="130" height="130" viewBox="0 0 130 130" fill="none" xmlns="http://www.w3.org/2000/svg">
<path fill-rule="evenodd" clip-rule="evenodd" d="M57.417 27.0833C59 25.5001 71.1673 25.6668 72.5837 27.0833C74 28.4998 73.5001 102 72.5837 102.917C71.6673 103.833 58.5001 104 57.417 102.917C56.3339 101.833 55.834 28.6664 57.417 27.0833ZM27.0831 49.8343C28.1665 48.6687 42.1665 48.6684 43.3331 49.8343C44.4998 51.0002 45.0001 101.5 43.3331 102.918C41.6661 104.335 28.5001 104 27.0831 102.918C25.6661 101.835 25.9997 50.9999 27.0831 49.8343ZM102.918 70.4166C102.335 69.333 89.0018 68.8332 87.7509 70.4166C86.4999 72 86.0018 101.833 87.7509 102.917C89.4999 104 101.5 104.5 102.918 102.917C104.335 101.333 103.5 71.5002 102.918 70.4166Z" fill="white"/>
</svg>
