<svg width="130" height="130" viewBox="0 0 130 130" fill="none" xmlns="http://www.w3.org/2000/svg">
<path fill-rule="evenodd" clip-rule="evenodd" d="M51.4581 62.2916C49.4164 60.0832 49.9996 32 51.4581 29.7916C52.9166 27.5832 108.583 27.5831 111.041 29.7916C113.5 32.0001 113 61 111.041 62.2916C109.083 63.5832 53.4998 64.5 51.4581 62.2916ZM46.0416 100.208C44.5832 101.917 21.5 102 18.9583 100.208C16.4166 98.4168 17.4998 32 18.9583 29.7917C20.4168 27.5834 44.0835 28.0834 46.0416 29.7917C47.9998 31.4999 47.5 98.4999 46.0416 100.208ZM78.5415 100.208C76.5831 101.917 53.5001 102 51.4581 100.208C49.4161 98.4165 49.4165 69.4164 51.4581 67.7083C53.4998 66.0001 76.5831 65.9165 78.5415 67.7083C80.4998 69.5 80.4998 98.5 78.5415 100.208ZM83.9581 100.208C85.5002 101.5 109.948 101.586 111.041 100.208C112.135 98.8302 113 70 111.041 67.7083C109.083 65.4165 86.5001 65.5 83.9581 67.7083C81.4161 69.9165 82.416 98.9164 83.9581 100.208Z" fill="white"/>
</svg>
