<svg width="100" height="100" viewBox="0 0 100 100" fill="none" xmlns="http://www.w3.org/2000/svg">
<mask id="mask0_2366_1134" style="mask-type:luminance" maskUnits="userSpaceOnUse" x="29" y="25" width="43" height="50">
<path d="M66.5424 28H34.3331C34.0083 28 33.6871 28.0679 33.39 28.1992C33.0929 28.3305 32.8266 28.5224 32.6079 28.7625C32.3893 29.0027 32.2232 29.2859 32.1202 29.5939C32.0173 29.902 31.9799 30.2281 32.0102 30.5515L35.1462 63.9952C35.1842 64.4022 35.3285 64.7921 35.5645 65.1259C35.8006 65.4596 36.1202 65.7255 36.4914 65.8968L49.4601 71.8818C49.7666 72.0233 50.1001 72.0965 50.4377 72.0965C50.7753 72.0965 51.1089 72.0233 51.4154 71.8818L64.3841 65.8968C64.7554 65.7256 65.0753 65.4598 65.3116 65.1261C65.5479 64.7923 65.6923 64.4023 65.7304 63.9952L68.8652 30.5515C68.8956 30.2281 68.8581 29.902 68.7552 29.5939C68.6523 29.2859 68.4862 29.0027 68.2675 28.7625C68.0489 28.5224 67.7825 28.3305 67.4854 28.1992C67.1884 28.0679 66.8672 28 66.5424 28Z" fill="white" stroke="white" stroke-width="5.33333"/>
<path d="M59.7707 36.167H41.104L42.2707 46.667H58.604L57.4373 59.5003L50.4373 63.0003L43.4373 59.5003L42.854 53.667" stroke="black" stroke-width="5.33333" stroke-linecap="round" stroke-linejoin="round"/>
</mask>
<g mask="url(#mask0_2366_1134)">
<path d="M22.4375 22.167H78.4375V78.167H22.4375V22.167Z" fill="white"/>
</g>
</svg>
