<svg width="100" height="100" viewBox="0 0 100 100" fill="none" xmlns="http://www.w3.org/2000/svg">
<path fill-rule="evenodd" clip-rule="evenodd" d="M28.125 22H71.875C75.2577 22 78 24.7423 78 28.125V71.875C78 75.2577 75.2577 78 71.875 78H28.125C24.7423 78 22 75.2577 22 71.875V28.125C22 24.7423 24.7423 22 28.125 22ZM62.7702 45.7305C62.7702 44.0048 61.3713 42.6058 59.6456 42.6058C57.9199 42.6058 56.521 44.0048 56.521 45.7305V54.9422C56.521 60.3799 56.2366 62.4497 55.3436 64.235C55.134 64.6645 54.8948 65.0572 54.6122 65.4245C53.3406 67.0771 53.2251 69.7621 55.1082 70.6575C55.7948 70.984 56.5996 70.9851 57.26 70.6084C59.3188 69.4339 60.4346 68.2627 61.3094 66.5482C62.4049 64.4787 62.7702 62.0847 62.7702 57.0928V45.7305ZM52.8282 36.0795C52.8282 34.3537 51.4291 32.9547 49.7033 32.9548C47.9776 32.9549 46.5788 34.3539 46.5788 36.0795V39.7373C46.5788 41.1268 45.2493 42.1596 43.8597 42.1596C37.3265 42.1596 33.106 46.2986 33.106 52.6699C33.106 59.2849 37.0828 62.7339 44.7122 62.7339C49.454 62.7339 52.8282 58.45 52.8282 53.7082V36.0795ZM39.4771 52.5478C39.4771 49.1392 41.3034 47.1913 44.4687 47.1913C45.7497 47.1913 46.5788 48.3799 46.5788 49.6609V55.3814C46.5788 56.6179 45.6647 57.7018 44.4282 57.7018C41.2222 57.7018 39.4771 55.8759 39.4771 52.5478ZM62.7702 36.1126C62.7702 34.3868 61.3712 32.9879 59.6455 32.9879C57.9198 32.988 56.521 34.3869 56.521 36.1126V36.2752C56.521 38.0009 57.9199 39.3998 59.6456 39.3998C61.3713 39.3998 62.7702 38.0009 62.7702 36.2752V36.1126Z" fill="white"/>
</svg>
