<svg width="130" height="130" viewBox="0 0 130 130" fill="none" xmlns="http://www.w3.org/2000/svg">
<path d="M64.6176 14.6421C53.7301 3.75464 37.426 1.5338 24.3176 7.92547C11.2093 14.3171 48.256 27.6593 47.826 31.4338C47.3959 35.2083 35.8855 47.3958 31.576 47.6838C27.2665 47.9718 11.3957 21.9447 8.06762 24.1755C4.73949 26.4062 3.95095 53.5338 14.8385 64.4213C24.9135 74.4963 49.4748 71.0739 52.1593 72.438C54.8438 73.8021 101.014 125.999 105.351 125.63C109.688 125.26 125.938 110.365 125.447 105.534C124.956 100.703 75.1563 54.8437 72.4718 52.5046C69.7873 50.1655 74.8551 24.8796 64.6176 14.6421Z" fill="white"/>
</svg>
