<svg width="100" height="100" viewBox="0 0 100 100" fill="none" xmlns="http://www.w3.org/2000/svg">
<g clip-path="url(#clip0_2366_1109)">
<mask id="mask0_2366_1109" style="mask-type:luminance" maskUnits="userSpaceOnUse" x="22" y="22" width="56" height="56">
<path d="M22 22H78V78H22V22Z" fill="white"/>
</mask>
<g mask="url(#mask0_2366_1109)">
<path d="M49.7993 22C35.58 22 36.4667 28.1973 36.4667 28.1973L36.483 34.6187H50.049V36.546H31.1C31.1 36.546 22 35.5077 22 49.9277C22 64.3477 29.9403 63.8343 29.9403 63.8343H34.677V57.1447C34.677 57.1447 34.4227 49.1647 42.4937 49.1647H55.9477C55.9477 49.1647 63.5077 49.286 63.5077 41.8193V29.4713C63.5077 29.4713 64.6557 22 49.7993 22ZM42.3187 26.3167C43.6673 26.3167 44.7593 27.4133 44.7593 28.7713C44.7593 30.127 43.6673 31.2237 42.3187 31.2237C40.97 31.2237 39.878 30.127 39.878 28.7713C39.878 27.4133 40.9677 26.3167 42.3187 26.3167Z" fill="white"/>
<path d="M50.203 77.9997C64.4177 77.9997 63.531 71.8024 63.531 71.8024L63.5147 65.381H49.9487V63.4537H68.9024C68.9024 63.4537 78.0024 64.492 78.0024 50.072C78.0024 35.652 70.0597 36.1654 70.0597 36.1654H65.323V42.855C65.323 42.855 65.5774 50.835 57.5064 50.835H44.0547C44.0547 50.835 36.4947 50.7137 36.4947 58.1804V70.5284C36.4947 70.5284 35.3467 77.9997 50.203 77.9997ZM57.6837 73.683C56.3327 73.683 55.243 72.5863 55.243 71.2284C55.243 69.8727 56.3327 68.776 57.6837 68.776C59.0324 68.776 60.1244 69.8727 60.1244 71.2284C60.1244 72.5863 59.0324 73.683 57.6837 73.683Z" fill="white"/>
</g>
</g>
<defs>
<clipPath id="clip0_2366_1109">
<rect width="56" height="56" fill="white" transform="translate(22 22)"/>
</clipPath>
</defs>
</svg>
