<svg width="100" height="100" viewBox="0 0 100 100" fill="none" xmlns="http://www.w3.org/2000/svg">
<path d="M31.3333 22C28.858 22 26.484 22.9833 24.7337 24.7337C22.9833 26.484 22 28.858 22 31.3333V68.6667C22 71.142 22.9833 73.516 24.7337 75.2663C26.484 77.0167 28.858 78 31.3333 78H68.6667C71.142 78 73.516 77.0167 75.2663 75.2663C77.0167 73.516 78 71.142 78 68.6667V31.3333C78 28.858 77.0167 26.484 75.2663 24.7337C73.516 22.9833 71.142 22 68.6667 22H31.3333ZM54.1502 62.6156C56.3902 64.42 58.6261 65.3098 60.8578 65.2849C62.2267 65.2849 63.2761 65.0339 64.0062 64.532C64.3461 64.3113 64.6227 64.006 64.8088 63.6459C64.9948 63.2859 65.0838 62.8836 65.0671 62.4787C65.0718 62.037 64.9796 61.5997 64.7968 61.1976C64.614 60.7955 64.3452 60.4384 64.0093 60.1516C63.2793 59.5148 61.8979 58.876 59.8653 58.2351C57.4241 57.5299 55.5419 56.6173 54.2187 55.4973C52.9203 54.3773 52.2587 52.8145 52.2338 50.8089C52.2338 48.9153 53.0551 47.3296 54.6978 46.052C56.2948 44.7744 58.3378 44.1356 60.8267 44.1356C64.2945 44.1356 67.0769 44.9797 69.1738 46.668L66.7782 50.3982C65.9156 49.7276 64.9261 49.2386 63.8693 48.9609C62.9197 48.6427 61.9275 48.4697 60.9262 48.4476C59.744 48.4476 58.7972 48.6643 58.0858 49.0978C57.3806 49.5333 57.028 50.1037 57.028 50.8089C57.028 51.5846 57.4604 52.2462 58.3253 52.7938C59.1964 53.3206 60.6794 53.9024 62.7742 54.5391C65.3067 55.292 67.109 56.2958 68.1813 57.5507C69.2536 58.8055 69.7898 60.4025 69.7898 62.3418C69.7898 64.3267 69.0255 66.0378 67.4969 67.4751C65.9911 68.8896 63.8009 69.6311 60.9262 69.6996C57.1618 69.6996 54.0133 68.5702 51.4809 66.3116L54.1502 62.6156ZM36.9458 64.6004C37.6759 65.0567 38.5542 65.2849 39.5809 65.2849C40.6532 65.2849 41.543 64.9769 42.2502 64.3609C42.9554 63.7221 43.309 62.6156 43.3111 61.0413V44.5462H47.9311V61.9311C47.8627 64.6233 47.087 66.5625 45.604 67.7489C44.7926 68.4349 43.8492 68.9474 42.832 69.2547C41.8888 69.5419 40.9091 69.6917 39.9231 69.6996C38.212 69.6996 36.6948 69.403 35.3716 68.8098C33.957 68.173 32.7707 67.0437 31.8124 65.4218L35.0293 62.7867C35.6204 63.5852 36.2593 64.1898 36.9458 64.6004Z" fill="white"/>
</svg>
