<svg width="100" height="100" viewBox="0 0 100 100" fill="none" xmlns="http://www.w3.org/2000/svg">
<path d="M36.8328 43C30.6798 44.5867 26.6665 47.305 26.6665 50.4083C26.6665 55.3247 36.9448 59.3333 49.6498 59.3333C51.3765 59.3333 52.5898 59.2423 54.1998 59.107" stroke="white" stroke-width="5.33333" stroke-linecap="round" stroke-linejoin="round"/>
<path d="M44.9529 59.1C43.9893 57.7094 43.0723 56.4564 42.1996 54.9C35.7806 43.4667 34.0609 32.1034 38.3963 29.5297C41.0796 27.9034 45.5059 30.12 50.0023 34.789" stroke="white" stroke-width="5.33333" stroke-linecap="round" stroke-linejoin="round"/>
<path d="M37.0009 57.903C35.3629 64.175 35.6942 68.907 38.3075 70.4913C42.4679 73.0113 50.8772 65.9227 57.0745 54.6153C57.9145 53.052 58.6674 51.5136 59.3332 50" stroke="white" stroke-width="5.33333" stroke-linecap="round" stroke-linejoin="round"/>
<path d="M49.9995 65.2137C54.4982 69.8804 58.9058 72.0971 61.6148 70.4707C65.9315 67.8994 64.2305 56.5361 57.8045 45.1004C56.9085 43.5207 55.9915 42.2911 55.0512 40.9004" stroke="white" stroke-width="5.33333" stroke-linecap="round" stroke-linejoin="round"/>
<path d="M63.2065 56.9998C69.3011 55.3968 73.3331 52.6832 73.3331 49.5892C73.3331 44.6658 63.0478 40.6665 50.3615 40.6665C48.6185 40.6665 47.4075 40.7342 45.7998 40.8695" stroke="white" stroke-width="5.33333" stroke-linecap="round" stroke-linejoin="round"/>
<path d="M40.6665 49.9999C41.3315 48.4599 42.0828 46.9479 42.9252 45.3846C49.1015 34.0819 57.5155 26.9746 61.6992 29.5156C64.2892 31.0999 64.6438 35.8296 63.0058 42.0993M50.6065 50.0349H50.5832C50.5598 50.3383 50.3032 50.5949 49.9765 50.5949C49.8203 50.5872 49.6729 50.5201 49.5645 50.4073C49.456 50.2946 49.3948 50.1447 49.3932 49.9883C49.3932 49.6616 49.6498 49.4049 49.9532 49.4049H49.9298C50.2332 49.3816 50.5132 49.6616 50.5132 49.9649" stroke="white" stroke-width="5.33333" stroke-linecap="round" stroke-linejoin="round"/>
</svg>
