<svg width="100" height="100" viewBox="0 0 100 100" fill="none" xmlns="http://www.w3.org/2000/svg">
<g clip-path="url(#clip0_2366_1165)">
<path d="M30.6183 78C28.5421 78 27.4931 75.4982 28.9483 74.0174L49.7406 52.8594C50.6555 51.9285 52.1548 51.9252 53.0736 52.8522L74.0453 74.0102C75.5103 75.4882 74.4634 78 72.3824 78H30.6183ZM22 24.3415C22 23.0483 23.0483 22 24.3415 22H44.5065C46.5695 22 47.6243 24.4747 46.1956 25.963L26.0306 46.9686C24.5699 48.4902 22 47.4563 22 45.3471V24.3415ZM54.2639 22C53.625 22 53.0139 22.261 52.5723 22.7225L22.6499 53.9882C22.2328 54.424 22 55.0039 22 55.6071V72.3472C22 74.4332 24.5221 75.4779 25.9971 74.0029L74.0029 25.9971C75.4779 24.5221 74.4332 22 72.3472 22H54.2639Z" fill="white"/>
</g>
<defs>
<clipPath id="clip0_2366_1165">
<rect x="22" y="22" width="56" height="56" rx="6.2439" fill="white"/>
</clipPath>
</defs>
</svg>
