<svg width="100" height="100" viewBox="0 0 100 100" fill="none" xmlns="http://www.w3.org/2000/svg">
<g clip-path="url(#clip0_2366_1104)">
<path d="M62.7519 29.9613C62.9868 30.1962 62.8119 30.6078 62.4797 30.6078H35.617C35.111 30.6078 34.9493 29.9262 35.4013 29.699L49.2563 22.7328C50.0656 22.2516 51.3125 22 52.5812 22C54.0578 22 55.7969 23.0062 56.6281 23.8375L62.7519 29.9613ZM34.556 33.3742C34.2534 33.0719 34.4676 32.5547 34.8953 32.5547H62.4797C64.2297 32.5547 65.2578 32.7078 66.3516 33.5719L77.5308 44.7407C77.8312 45.0408 78 45.448 78 45.8726V66.4609C78 67.3391 77.2922 68.0531 76.4141 68.0609L69.9973 68.1175C69.5682 68.1213 69.1556 67.9526 68.8521 67.6493L34.556 33.3742ZM32.5547 62.7969V35.2776C32.5547 34.8499 33.0717 34.6358 33.3741 34.9382L67.5077 69.0717C67.8042 69.3682 67.9724 69.7693 67.9762 70.1886L68.0323 76.3855C68.0403 77.2748 67.3217 78 66.4323 78H45.5007C45.0761 78 44.6689 77.8312 44.3688 77.5308L34.1078 67.2594C32.8719 66.0234 32.5547 65.5859 32.5547 62.7969ZM29.6947 35.4284C29.9151 34.9671 30.6078 35.1241 30.6078 35.6353V62.7969C30.6078 63.1526 30.1773 63.3398 29.9257 63.0882L23.8484 57.0109C22.7109 55.8297 22 54.1891 22 52.5812C22 51.8375 22.4266 50.6672 22.7328 50L29.6947 35.4284Z" fill="white"/>
</g>
<defs>
<clipPath id="clip0_2366_1104">
<rect width="56" height="56" fill="white" transform="translate(22 22)"/>
</clipPath>
</defs>
</svg>
