<svg width="130" height="130" viewBox="0 0 130 130" fill="none" xmlns="http://www.w3.org/2000/svg">
<path d="M107.567 62.3C102.634 63.1 102.5 64 100.2 62.3C97.9009 60.6 103.5 32.5 100.2 29.8C96.9009 27.1 69.5 31 67.7004 29.8C65.9008 28.6 67.7004 22.4333 67.7004 22.4333C67.7004 15.3375 62.6087 8.89165 55.5671 8.18748C47.4421 7.37498 40.6171 13.7125 40.6171 21.675C40.6171 21.675 42 28 40.6171 29.8C39.2342 31.6 9.99983 28.5 8.17124 29.8C6.34266 31.1 6.34266 59.9333 8.17124 61.2167C9.99983 62.5 15.7004 61.2167 15.7004 61.2167C22.7962 61.2167 29.2421 65.9833 30.5962 72.9167C32.3837 82.2333 25.2879 90.4667 16.2421 90.4667C16.2421 90.4667 9.50005 89 8.11708 90.4667C6.7341 91.9333 6.73426 120.267 8.11708 121.883C9.49989 123.5 37.5676 123.767 39.5337 121.883C41.4999 120 39.5337 114.3 39.5337 114.3C39.5337 107.204 44.3004 100.758 51.2337 99.4042C60.5504 97.6167 68.7837 104.712 68.7837 113.758C68.7837 113.758 67.0676 120.267 68.7837 121.883C70.4999 123.5 98.9009 123.767 100.2 121.883C101.5 120 98.4009 91.2666 100.2 89.3833C102 87.5 108.325 89.3833 108.325 89.3833C116.288 89.3833 122.625 82.5583 121.813 74.4333C121.109 67.3917 112.5 61.5 107.567 62.3Z" fill="white"/>
</svg>
