<svg width="100" height="100" viewBox="0 0 100 100" fill="none" xmlns="http://www.w3.org/2000/svg">
<path d="M51.0247 28.2885C54.6623 25.5049 58.9487 23.8692 62.5 25.9202C66.0513 27.9689 66.7793 32.5002 66.1867 37.0409C66.1151 37.604 66.021 38.1811 65.9043 38.7722C66.4752 38.9682 67.022 39.1751 67.5447 39.3929C71.7727 41.1522 75.3333 44.0479 75.3333 48.1475C75.3333 52.2472 71.7727 55.1429 67.5447 56.9022C67.0205 57.12 66.4737 57.3269 65.9043 57.5229C66.021 58.114 66.1151 58.6911 66.1867 59.2542C66.7793 63.7949 66.0513 68.3262 62.5 70.3749C58.951 72.4259 54.66 70.7902 51.0247 68.0089C50.5605 67.6522 50.1076 67.281 49.6667 66.8959C49.2109 67.2925 48.7582 67.6635 48.3087 68.0089C44.6733 70.7902 40.3847 72.4259 36.8333 70.3749C33.2843 68.3262 32.5563 63.7949 33.1467 59.2542C33.2234 58.6743 33.3184 58.0969 33.4313 57.5229C32.8589 57.3269 32.3113 57.12 31.7887 56.9022C27.5607 55.1429 24 52.2472 24 48.1475C24 44.0479 27.5607 41.1522 31.7887 39.3929C32.3129 39.1751 32.8604 38.9682 33.4313 38.7722C33.3147 38.1811 33.2198 37.604 33.1467 37.0409C32.5563 32.5002 33.2843 27.9689 36.8333 25.9202C40.3823 23.8715 44.6733 25.5049 48.3087 28.2885C48.7598 28.6308 49.2124 29.001 49.6667 29.3992C50.1224 29.0025 50.5751 28.6323 51.0247 28.2885ZM37.9533 58.7339C37.8833 59.1197 37.8242 59.4938 37.776 59.8562C37.2323 64.0399 38.2567 65.8062 39.169 66.3336C40.0837 66.8609 42.1253 66.8656 45.476 64.3036C45.7766 64.072 46.0714 63.8331 46.3603 63.5872C45.2099 62.282 44.1267 60.9191 43.1147 59.5039C41.3823 59.3349 39.6596 59.0779 37.9533 58.7339ZM61.387 58.7339C59.7754 59.0621 58.055 59.3188 56.2257 59.5039C55.1508 60.9972 54.0689 62.3583 52.98 63.5872C53.2771 63.8408 53.5711 64.0788 53.862 64.3012C57.2127 66.8656 59.2567 66.8609 60.169 66.3336C61.0837 65.8062 62.1057 64.0399 61.562 59.8562C61.5128 59.4807 61.4544 59.1065 61.387 58.7339ZM49.6667 41.1476C48.2838 41.1476 46.96 41.1872 45.6953 41.2666C44.9938 42.3243 44.2969 43.4521 43.6047 44.6499C42.9417 45.7972 42.3137 46.9644 41.7217 48.1499C42.2863 49.2854 42.914 50.4513 43.6047 51.6476C44.2953 52.8438 44.9922 53.9715 45.6953 55.0309C48.3414 55.1865 50.9943 55.1865 53.6403 55.0309C54.3419 53.9731 55.038 52.8453 55.7287 51.6476C56.3925 50.5003 57.0212 49.3331 57.614 48.1475C57.0212 46.962 56.3925 45.7948 55.7287 44.6475C55.067 43.4996 54.3706 42.3721 53.6403 41.2666C52.3173 41.1866 50.9921 41.1469 49.6667 41.1476ZM34.64 43.2942C34.2836 43.4217 33.9304 43.5579 33.5807 43.7026C29.684 45.3219 28.6667 47.0929 28.6667 48.1475C28.6667 49.2022 29.6863 50.9732 33.5807 52.5925C33.9198 52.7325 34.2729 52.8687 34.64 53.0009C35.1959 51.3517 35.8353 49.7318 36.5557 48.1475C35.836 46.5632 35.1951 44.9434 34.64 43.2942ZM64.6933 43.2942C64.1382 44.9434 63.4996 46.5632 62.78 48.1475C63.536 49.8205 64.1753 51.4445 64.6933 53.0009C65.0497 52.8734 65.4029 52.7372 65.7527 52.5925C69.6493 50.9732 70.6667 49.2022 70.6667 48.1475C70.6667 47.0929 69.6493 45.3242 65.7527 43.7026C65.4029 43.5579 65.0497 43.4217 64.6933 43.2942ZM49.6667 44.6475C50.5949 44.6475 51.4852 45.0163 52.1415 45.6727C52.7979 46.3291 53.1667 47.2193 53.1667 48.1475C53.1667 49.0758 52.7979 49.966 52.1415 50.6224C51.4852 51.2788 50.5949 51.6476 49.6667 51.6476C48.7384 51.6476 47.8482 51.2788 47.1918 50.6224C46.5354 49.966 46.1667 49.0758 46.1667 48.1475C46.1667 47.2193 46.5354 46.3291 47.1918 45.6727C47.8482 45.0163 48.7384 44.6475 49.6667 44.6475ZM39.1667 29.9615C38.2543 30.4889 37.23 32.2552 37.7737 36.4389C37.8203 36.8029 37.8794 37.177 37.951 37.5612C39.561 37.233 41.2814 36.9763 43.1123 36.7912C44.1243 35.376 45.2076 34.0131 46.358 32.7079C46.0691 32.4627 45.7742 32.2247 45.4737 31.9939C42.123 29.4295 40.0813 29.4342 39.1667 29.9615ZM60.1667 29.9615C59.2543 29.4342 57.2103 29.4319 53.8597 31.9939C53.5599 32.2247 53.2658 32.4628 52.9777 32.7079C54.065 33.9352 55.1523 35.3002 56.221 36.7912C58.0534 36.9763 59.7747 37.233 61.3847 37.5612C61.4521 37.1894 61.5104 36.8159 61.5597 36.4412C62.1057 32.2575 61.0813 30.4889 60.1667 29.9615Z" fill="white"/>
</svg>
