<svg width="8" height="9" viewBox="0 0 8 9" fill="none" xmlns="http://www.w3.org/2000/svg">
<path d="M3.24991 0.00627136C3.0841 0.0465603 2.97846 0.17572 2.97846 0.338059C2.97846 0.477884 2.98952 0.490919 3.42065 0.908024L3.80879 1.28247L3.69333 1.29077C3.11603 1.33224 2.51294 1.50998 2.0204 1.78371C1.69981 1.96264 1.45661 2.14275 1.18271 2.40581C0.789653 2.78381 0.530484 3.14878 0.324132 3.61565C-0.09103 4.55295 -0.108226 5.60875 0.277457 6.55908C0.54768 7.22503 1.02917 7.8258 1.63717 8.2595C2.13094 8.61143 2.74386 8.8579 3.35186 8.95151C3.85055 9.02853 4.40573 9.01313 4.87985 8.91004C6.10814 8.64461 7.14236 7.82936 7.65456 6.72498C7.87565 6.24744 7.99479 5.73791 7.99971 5.24971C8.00093 5.05182 7.99971 5.04708 7.96777 4.98783C7.83143 4.7378 7.45557 4.7461 7.33643 5.00087C7.31432 5.04826 7.30818 5.09092 7.30081 5.21416C7.28976 5.44759 7.27256 5.58742 7.23325 5.77701C7.06375 6.59582 6.55278 7.3222 5.81212 7.79855C5.64262 7.90875 5.33064 8.06161 5.14025 8.12915C4.69561 8.28675 4.18464 8.35311 3.72035 8.31282C3.30027 8.27609 2.94039 8.17892 2.55962 7.99881C2.07444 7.76893 1.68753 7.46084 1.36081 7.04255C0.617693 6.08984 0.494864 4.78994 1.04882 3.72585C1.33624 3.17366 1.77228 2.72219 2.32256 2.40462C2.74386 2.16289 3.1971 2.02188 3.72035 1.96856L3.78668 1.96145L3.41082 2.32642C2.98952 2.73167 2.97846 2.74708 2.97846 2.88572C2.97969 3.07768 3.12831 3.22225 3.3273 3.22225C3.48206 3.22106 3.45627 3.24239 4.24483 2.47928C5.02725 1.72327 4.99777 1.75645 4.99777 1.61189C4.99777 1.46732 5.02725 1.5005 4.24483 0.7445C3.67613 0.193495 3.52014 0.0501146 3.47469 0.0311556C3.40468 0.00271702 3.31133 -0.00794792 3.24991 0.00627136Z" fill="#5C5D5F"/>
</svg>
