<svg width="138" height="138" viewBox="0 0 138 138" fill="none" xmlns="http://www.w3.org/2000/svg">
<path d="M18.7225 52.62C18.7225 52.62 7.00626 60.355 3.30938 63.3125C2.45523 63.9022 1.67266 64.5893 0.977509 65.36C0.977509 65.36 0.977509 65.7013 0.977509 64.8481C1.8135 53.2272 5.46363 41.984 11.6131 32.0881V32.0881L18.7225 52.62Z" fill="#07E7B7"/>
<path d="M63.3125 26.0594V43.6906L45.3969 57.17L30.0406 50.6294L20.2012 21.3956L20.77 20.77C22.0212 19.5188 23.3294 18.3244 24.6375 17.1869C25.9456 16.0494 26.9694 15.2531 28.2206 14.3431C28.5179 14.0656 28.8417 13.8179 29.1875 13.6038C30.6094 12.58 32.145 11.6131 33.6806 10.6463C35.2731 9.67938 36.8656 8.76938 38.5719 7.91626L63.3125 26.0594Z" fill="#07E7B7"/>
<path d="M44.43 132.643H44.0888C33.322 128.402 23.8103 121.494 16.4475 112.566V112.282L38.1169 111.884L44.43 132.643Z" fill="#07E7B7"/>
<path d="M48.525 90.3851L39.5388 100.395L8.59877 100.679C7.74564 99.0301 7.00626 97.3807 6.26689 95.7313C5.52751 94.082 5.01564 92.6601 4.50376 91.0676C4.48028 90.8597 4.48028 90.6498 4.50376 90.442C3.94374 88.7993 3.46915 87.1287 3.08189 85.4369C2.54207 83.7782 2.1052 82.0877 1.77376 80.3751C1.77376 79.5219 1.77377 78.7257 1.37564 77.9294L26.1731 60.8669L41.5294 67.4644L48.525 90.3851Z" fill="#07E7B7"/>
<path d="M85.2094 66.0992L78.9532 86.0623H59.1038L52.7906 65.8148L69 53.6436L85.2094 66.0992Z" fill="#07E7B7"/>
<path d="M86.4606 3.02498L69 16.1062L51.9375 2.96811C57.5025 1.4806 63.2396 0.734779 69 0.749984C74.7594 0.749763 80.4946 1.49534 86.0625 2.96811L86.4606 3.02498Z" fill="#07E7B7"/>
<path d="M118.424 21.9643L108.016 50.4018L92.66 57.625L74.6875 43.6906V26.0593L98.9163 7.68872L99.5988 8.02997C101.191 8.82622 102.784 9.67935 104.319 10.6462L107.789 12.9212L109.779 14.3431H110.064L113.135 16.7887C114.548 17.966 115.896 19.2191 117.173 20.5425L118.424 21.9643Z" fill="#07E7B7"/>
<path d="M89.5319 107.448L80.8869 135.885H80.0338L77.19 136.283H74.9719H72.5263L69 137.25H65.4738C62.6897 137.119 59.9165 136.815 57.17 136.34V136.34L48.4681 107.903L57.625 97.4375H80.375L89.5319 107.448Z" fill="#07E7B7"/>
<path d="M122.121 111.827L121.723 112.339C114.277 121.404 104.62 128.397 93.6837 132.643L100.224 111.827H122.121Z" fill="#07E7B7"/>
<path d="M136.454 79.1805C136.482 79.4642 136.482 79.75 136.454 80.0337C136.169 81.7399 135.828 83.503 135.43 85.2093C135.43 85.2093 135.43 85.778 135.43 86.0624C135.032 87.598 134.577 89.1337 134.065 90.6124C133.553 92.0912 132.871 94.0249 132.131 95.7312C131.392 97.4374 130.596 99.1437 129.686 100.85L98.8594 100.395L89.8732 90.3849L96.8688 68.1468L112.225 61.3787L136.454 79.1805Z" fill="#07E7B7"/>
<path d="M137.25 65.1325L119.448 52.5632L126.614 32.2588C132.937 42.1154 136.601 53.4404 137.25 65.1325V65.1325Z" fill="#07E7B7"/>
</svg>
