<svg width="144" height="144" viewBox="0 0 144 144" fill="none" xmlns="http://www.w3.org/2000/svg">
<path fill-rule="evenodd" clip-rule="evenodd" d="M85.5 18C77.5 12 66.5 12 58.5 18L22.5 45C16.8344 49.2492 13.5 55.918 13.5 63V108C13.5 120.426 23.5736 130.5 36 130.5H108C120.426 130.5 130.5 120.426 130.5 108V63C130.5 55.918 127.166 49.2492 121.5 45L85.5 18ZM72 58.5C62.3368 58.5 53.5709 62.3013 47.1005 68.4996C45.3058 70.2188 42.4573 70.1576 40.738 68.3629C39.0188 66.5682 39.08 63.7196 40.8747 62.0004C48.9531 54.2617 59.9252 49.5 72 49.5C84.0747 49.5 95.0468 54.2617 103.125 62.0004C104.92 63.7196 104.981 66.5682 103.262 68.3629C101.543 70.1576 98.6941 70.2188 96.8994 68.4996C90.4291 62.3013 81.6632 58.5 72 58.5ZM59.4002 81.6452C62.6516 78.4579 67.0926 76.5 72 76.5C76.9074 76.5 81.3484 78.4579 84.5998 81.6452C86.3745 83.385 89.2236 83.3567 90.9634 81.582C92.7033 79.8072 92.6749 76.9581 90.9002 75.2183C86.0347 70.4486 79.3572 67.5 72 67.5C64.6428 67.5 57.9653 70.4486 53.0998 75.2183C51.3251 76.9581 51.2967 79.8072 53.0366 81.582C54.7764 83.3567 57.6255 83.385 59.4002 81.6452ZM81 94.5C81 99.4706 76.9706 103.5 72 103.5C67.0294 103.5 63 99.4706 63 94.5C63 89.5294 67.0294 85.5 72 85.5C76.9706 85.5 81 89.5294 81 94.5Z" fill="#07E7B7"/>
</svg>
