<svg width="120" height="120" viewBox="0 0 120 120" fill="none" xmlns="http://www.w3.org/2000/svg">
<path d="M59.9968 7.50049C49.6133 7.50049 39.463 10.5796 30.8294 16.3483C22.1958 22.1171 15.4668 30.3165 11.4932 39.9096C7.51957 49.5027 6.4799 60.0587 8.50562 70.2427C10.5313 80.4267 15.5315 89.7813 22.8737 97.1236C30.216 104.466 39.5706 109.466 49.7546 111.492C59.9386 113.517 70.4946 112.478 80.0877 108.504C89.6808 104.531 97.8802 97.8015 103.649 89.1679C109.418 80.5343 112.497 70.384 112.497 60.0005C112.497 46.0766 106.966 32.723 97.1199 22.8774C87.2743 13.0317 73.9207 7.50049 59.9968 7.50049ZM56.2468 86.9255C54.0585 87.6992 52.1631 89.1308 50.8204 91.024C49.4776 92.9172 48.7534 95.1795 48.7468 97.5005V103.538C41.8144 101.74 35.4112 98.3134 30.0694 93.5429C24.7277 88.7724 20.6017 82.7959 18.0344 76.11C15.4672 69.4241 14.5328 62.222 15.3089 55.1024C16.0851 47.9827 18.5493 41.1512 22.4968 35.1755V52.5005C22.5111 54.8151 23.2389 57.069 24.5811 58.9548C25.9233 60.8406 27.8145 62.2665 29.9968 63.038V67.5005C29.9968 70.4842 31.1821 73.3457 33.2919 75.4554C35.4017 77.5652 38.2632 78.7505 41.2468 78.7505H52.4968C53.4914 78.7505 54.4452 79.1456 55.1485 79.8488C55.8518 80.5521 56.2468 81.5059 56.2468 82.5005V86.9255ZM85.0468 97.5005C79.5362 91.3416 71.9572 87.4187 63.7468 86.4755V82.5005C63.7468 79.5168 62.5616 76.6553 60.4518 74.5455C58.342 72.4358 55.4805 71.2505 52.4968 71.2505H41.2468C40.2523 71.2505 39.2985 70.8554 38.5952 70.1521C37.8919 69.4489 37.4968 68.495 37.4968 67.5005V63.7505H48.7468C51.7305 63.7505 54.592 62.5652 56.7018 60.4554C58.8116 58.3457 59.9968 55.4842 59.9968 52.5005C59.9968 51.5059 60.3919 50.5521 61.0952 49.8488C61.7985 49.1456 62.7523 48.7505 63.7468 48.7505C68.7197 48.7505 73.4888 46.775 77.0051 43.2587C80.5214 39.7424 82.4968 34.9733 82.4968 30.0005V21.0755C89.1326 24.8938 94.6845 30.3419 98.6273 36.9045C102.57 43.4671 104.773 50.9271 105.029 58.5787C105.284 66.2304 103.583 73.8207 100.086 80.6315C96.5897 87.4423 91.4133 93.2484 85.0468 97.5005Z" fill="#07E7B7"/>
</svg>
