<svg width="144" height="144" viewBox="0 0 144 144" fill="none" xmlns="http://www.w3.org/2000/svg">
<path d="M112.502 9H45.0024V135H112.502C116.083 135 119.517 133.578 122.048 131.046C124.58 128.514 126.002 125.08 126.002 121.5V22.5C126.002 18.9196 124.58 15.4858 122.048 12.9541C119.517 10.4223 116.083 9 112.502 9ZM99.0024 112.5H72.0024C70.809 112.5 69.6644 112.026 68.8205 111.182C67.9765 110.338 67.5024 109.193 67.5024 108C67.5024 106.807 67.9765 105.662 68.8205 104.818C69.6644 103.974 70.809 103.5 72.0024 103.5H99.0024C100.196 103.5 101.341 103.974 102.184 104.818C103.028 105.662 103.502 106.807 103.502 108C103.502 109.193 103.028 110.338 102.184 111.182C101.341 112.026 100.196 112.5 99.0024 112.5ZM108.002 94.5H63.0024C61.809 94.5 60.6644 94.0259 59.8205 93.182C58.9765 92.3381 58.5024 91.1935 58.5024 90C58.5024 88.8065 58.9765 87.6619 59.8205 86.818C60.6644 85.9741 61.809 85.5 63.0024 85.5H108.002C109.196 85.5 110.341 85.9741 111.184 86.818C112.028 87.6619 112.502 88.8065 112.502 90C112.502 91.1935 112.028 92.3381 111.184 93.182C110.341 94.0259 109.196 94.5 108.002 94.5ZM112.502 54C112.502 57.5804 111.08 61.0142 108.548 63.5459C106.017 66.0777 102.583 67.5 99.0024 67.5H72.0024C68.422 67.5 64.9882 66.0777 62.4565 63.5459C59.9248 61.0142 58.5024 57.5804 58.5024 54V45C58.5024 41.4196 59.9248 37.9858 62.4565 35.4541C64.9882 32.9223 68.422 31.5 72.0024 31.5H99.0024C102.583 31.5 106.017 32.9223 108.548 35.4541C111.08 37.9858 112.502 41.4196 112.502 45V54Z" fill="#07E7B7"/>
<path d="M36.0024 9V135H31.5024C27.922 135 24.4882 133.578 21.9565 131.046C19.4248 128.514 18.0024 125.08 18.0024 121.5V22.5C18.0024 18.9196 19.4248 15.4858 21.9565 12.9541C24.4882 10.4223 27.922 9 31.5024 9H36.0024Z" fill="#07E7B7"/>
<path d="M99.0024 40.5H72.0024C69.5172 40.5 67.5024 42.5147 67.5024 45V54C67.5024 56.4853 69.5172 58.5 72.0024 58.5H99.0024C101.488 58.5 103.502 56.4853 103.502 54V45C103.502 42.5147 101.488 40.5 99.0024 40.5Z" fill="#07E7B7"/>
</svg>
