<svg width="144" height="144" viewBox="0 0 144 144" fill="none" xmlns="http://www.w3.org/2000/svg">
<path d="M135 58.5009V103.501C135 109.468 132.629 115.191 128.41 119.411C124.19 123.63 118.467 126.001 112.5 126.001H31.4998C25.5324 126.001 19.8095 123.63 15.5899 119.411C11.3703 115.191 8.99982 109.468 8.99982 103.501V40.5009C8.9889 38.9891 9.13976 37.4805 9.44982 36.0009C10.2258 32.2199 11.9615 28.7022 14.4898 25.7859C14.8948 25.2909 15.3448 24.8409 15.7948 24.3909C17.5961 22.5512 19.6957 21.0297 22.0048 19.8909L23.3998 19.2609L24.2098 18.9909L25.2898 18.6309L26.1448 18.4059H27.4048C27.9931 18.2232 28.595 18.0877 29.2048 18.0009C29.9692 17.9561 30.7355 17.9561 31.4998 18.0009H44.9998C48.4898 18.0181 51.9288 18.839 55.0504 20.3997C58.1719 21.9605 60.892 24.2193 62.9998 27.0009C63.4906 27.6321 63.9415 28.2934 64.3498 28.9809C65.5263 31.0826 67.2351 32.8378 69.3046 34.07C71.3741 35.3022 73.7315 35.9681 76.1398 36.0009H112.5C117.371 35.9811 122.114 37.5622 126 40.5009C128.794 42.5967 131.062 45.3143 132.624 48.4386C134.187 51.5628 135 55.0079 135 58.5009Z" fill="#07E7B7"/>
<path d="M112.5 18H67.0499C68.9772 19.9 70.642 22.049 71.9999 24.39C72.3899 25.1396 72.9685 25.7745 73.6787 26.2322C74.3889 26.6899 75.2062 26.9545 76.0499 27H112.5C112.949 26.9552 113.401 26.9552 113.85 27C121.638 27.2838 129.031 30.4983 134.55 36C133.513 30.9179 130.751 26.3502 126.733 23.0701C122.715 19.79 117.687 17.9989 112.5 18Z" fill="#07E7B7"/>
</svg>
