<svg width="144" height="144" viewBox="0 0 144 144" fill="none" xmlns="http://www.w3.org/2000/svg">
<path d="M103.5 18H40.4998C34.5324 18 28.8095 20.3705 24.5899 24.5901C20.3703 28.8097 17.9998 34.5326 17.9998 40.5V103.5C17.9998 109.467 20.3703 115.19 24.5899 119.41C28.8095 123.629 34.5324 126 40.4998 126H103.5C109.467 126 115.19 123.629 119.41 119.41C123.629 115.19 126 109.467 126 103.5V40.5C126 34.5326 123.629 28.8097 119.41 24.5901C115.19 20.3705 109.467 18 103.5 18V18ZM40.4998 81H49.4998C50.6933 81 51.8379 81.4741 52.6818 82.318C53.5257 83.1619 53.9998 84.3065 53.9998 85.5C53.9998 86.6935 53.5257 87.8381 52.6818 88.682C51.8379 89.5259 50.6933 90 49.4998 90H40.4998C39.3063 90 38.1618 89.5259 37.3178 88.682C36.4739 87.8381 35.9998 86.6935 35.9998 85.5C35.9998 84.3065 36.4739 83.1619 37.3178 82.318C38.1618 81.4741 39.3063 81 40.4998 81V81ZM76.4998 108H40.4998C39.3063 108 38.1618 107.526 37.3178 106.682C36.4739 105.838 35.9998 104.693 35.9998 103.5C35.9998 102.307 36.4739 101.162 37.3178 100.318C38.1618 99.4741 39.3063 99 40.4998 99H76.4998C77.6933 99 78.8379 99.4741 79.6818 100.318C80.5257 101.162 80.9998 102.307 80.9998 103.5C80.9998 104.693 80.5257 105.838 79.6818 106.682C78.8379 107.526 77.6933 108 76.4998 108ZM103.5 108H94.4998C93.3063 108 92.1617 107.526 91.3178 106.682C90.4739 105.838 89.9998 104.693 89.9998 103.5C89.9998 102.307 90.4739 101.162 91.3178 100.318C92.1617 99.4741 93.3063 99 94.4998 99H103.5C104.693 99 105.838 99.4741 106.682 100.318C107.526 101.162 108 102.307 108 103.5C108 104.693 107.526 105.838 106.682 106.682C105.838 107.526 104.693 108 103.5 108ZM103.5 90H67.4998C66.3063 90 65.1618 89.5259 64.3178 88.682C63.4739 87.8381 62.9998 86.6935 62.9998 85.5C62.9998 84.3065 63.4739 83.1619 64.3178 82.318C65.1618 81.4741 66.3063 81 67.4998 81H103.5C104.693 81 105.838 81.4741 106.682 82.318C107.526 83.1619 108 84.3065 108 85.5C108 86.6935 107.526 87.8381 106.682 88.682C105.838 89.5259 104.693 90 103.5 90Z" fill="#07E7B7"/>
</svg>
