<svg width="151" height="153" viewBox="0 0 151 153" fill="none" xmlns="http://www.w3.org/2000/svg">
<path d="M144.185 101.812C141.035 101.812 138.015 100.561 135.788 98.3344C133.561 96.1074 132.31 93.0869 132.31 89.9375C132.31 88.3628 131.684 86.8525 130.571 85.739C129.457 84.6256 127.947 84 126.372 84C124.797 84 123.287 84.6256 122.174 85.739C121.06 86.8525 120.435 88.3628 120.435 89.9375C120.435 93.0869 119.183 96.1074 116.956 98.3344C114.729 100.561 111.709 101.812 108.56 101.812C106.985 101.812 105.475 102.438 104.361 103.552C103.248 104.665 102.622 106.175 102.622 107.75C102.622 109.325 103.248 110.835 104.361 111.948C105.475 113.062 106.985 113.687 108.56 113.687C111.709 113.687 114.729 114.939 116.956 117.166C119.183 119.393 120.435 122.413 120.435 125.562C120.435 127.137 121.06 128.647 122.174 129.761C123.287 130.874 124.797 131.5 126.372 131.5C127.947 131.5 129.457 130.874 130.571 129.761C131.684 128.647 132.31 127.137 132.31 125.562C132.31 122.413 133.561 119.393 135.788 117.166C138.015 114.939 141.035 113.687 144.185 113.687C145.759 113.687 147.27 113.062 148.383 111.948C149.497 110.835 150.122 109.325 150.122 107.75C150.122 106.175 149.497 104.665 148.383 103.552C147.27 102.438 145.759 101.812 144.185 101.812Z" fill="#07E7B7"/>
<path d="M61.0596 18.6875C57.9101 18.6875 54.8897 17.4364 52.6627 15.2094C50.4357 12.9824 49.1846 9.96195 49.1846 6.8125C49.1846 5.23778 48.559 3.72755 47.4455 2.61405C46.332 1.50056 44.8218 0.875 43.2471 0.875C41.6723 0.875 40.1621 1.50056 39.0486 2.61405C37.9351 3.72755 37.3096 5.23778 37.3096 6.8125C37.3096 9.96195 36.0585 12.9824 33.8315 15.2094C31.6045 17.4364 28.584 18.6875 25.4346 18.6875C23.8598 18.6875 22.3496 19.3131 21.2361 20.4266C20.1226 21.5401 19.4971 23.0503 19.4971 24.625C19.4971 26.1997 20.1226 27.7099 21.2361 28.8234C22.3496 29.9369 23.8598 30.5625 25.4346 30.5625C28.584 30.5625 31.6045 31.8136 33.8315 34.0406C36.0585 36.2676 37.3096 39.2881 37.3096 42.4375C37.3096 44.0122 37.9351 45.5224 39.0486 46.6359C40.1621 47.7494 41.6723 48.375 43.2471 48.375C44.8218 48.375 46.332 47.7494 47.4455 46.6359C48.559 45.5224 49.1846 44.0122 49.1846 42.4375C49.1846 39.2881 50.4357 36.2676 52.6627 34.0406C54.8897 31.8136 57.9101 30.5625 61.0596 30.5625C62.6343 30.5625 64.1445 29.9369 65.258 28.8234C66.3715 27.7099 66.9971 26.1997 66.9971 24.625C66.9971 23.0503 66.3715 21.5401 65.258 20.4266C64.1445 19.3131 62.6343 18.6875 61.0596 18.6875Z" fill="#07E7B7"/>
<path d="M123.463 46.2375L102.622 67.2562L85.819 50.4531L106.838 29.4343C107.95 28.3285 109.455 27.7078 111.024 27.7078C112.592 27.7078 114.097 28.3285 115.21 29.4343L123.641 37.8062C124.186 38.3699 124.614 39.0359 124.9 39.7658C125.186 40.4957 125.325 41.2751 125.309 42.059C125.292 42.8428 125.12 43.6157 124.804 44.3328C124.487 45.05 124.031 45.6974 123.463 46.2375Z" fill="#07E7B7"/>
<path d="M131.835 29.4345L123.463 21.0032C120.055 17.7752 115.54 15.9761 110.846 15.9761C106.152 15.9761 101.636 17.7752 98.2284 21.0032L68.5409 50.6908L5.90025 113.688C2.56455 117.027 0.690918 121.555 0.690918 126.275C0.690918 130.995 2.56455 135.523 5.90025 138.863L14.2721 147.294C17.612 150.63 22.1393 152.503 26.8596 152.503C31.5799 152.503 36.1073 150.63 39.4471 147.294L102.622 84.0001L132.31 54.6095C135.583 51.2071 137.372 46.6443 137.283 41.9237C137.194 37.2031 135.234 32.711 131.835 29.4345V29.4345ZM123.463 46.2376L102.622 67.2564L85.819 50.4533L106.838 29.4345C107.95 28.3286 109.455 27.7079 111.024 27.7079C112.592 27.7079 114.097 28.3286 115.21 29.4345L123.641 37.8064C124.186 38.37 124.614 39.036 124.9 39.7659C125.186 40.4959 125.325 41.2753 125.309 42.0591C125.292 42.843 125.12 43.6158 124.804 44.333C124.487 45.0502 124.031 45.6975 123.463 46.2376Z" fill="#07E7B7"/>
</svg>
