<svg width="144" height="144" viewBox="0 0 144 144" fill="none" xmlns="http://www.w3.org/2000/svg">
<path d="M103.502 18H40.5024C34.5351 18 28.8121 20.3705 24.5925 24.5901C20.373 28.8097 18.0024 34.5326 18.0024 40.5V85.5C18.0024 88.4547 18.5844 91.3806 19.7152 94.1104C20.8459 96.8402 22.5032 99.3206 24.5925 101.41C28.8121 105.629 34.5351 108 40.5024 108H61.1574L50.8074 118.305C50.3857 118.723 50.0509 119.221 49.8224 119.769C49.594 120.318 49.4763 120.906 49.4763 121.5C49.4763 122.094 49.594 122.682 49.8224 123.231C50.0509 123.779 50.3857 124.277 50.8074 124.695C51.2258 125.117 51.7235 125.452 52.2718 125.68C52.8202 125.908 53.4084 126.026 54.0024 126.026C54.5965 126.026 55.1847 125.908 55.733 125.68C56.2814 125.452 56.7791 125.117 57.1974 124.695L72.0024 109.845L86.8074 124.695C87.2258 125.117 87.7235 125.452 88.2718 125.68C88.8202 125.908 89.4084 126.026 90.0024 126.026C90.5965 126.026 91.1847 125.908 91.733 125.68C92.2814 125.452 92.7791 125.117 93.1974 124.695C93.6192 124.277 93.954 123.779 94.1825 123.231C94.4109 122.682 94.5285 122.094 94.5285 121.5C94.5285 120.906 94.4109 120.318 94.1825 119.769C93.954 119.221 93.6192 118.723 93.1974 118.305L82.8474 108H103.502C106.457 108 109.383 107.418 112.113 106.287C114.843 105.157 117.323 103.499 119.412 101.41C121.502 99.3206 123.159 96.8402 124.29 94.1104C125.42 91.3806 126.002 88.4547 126.002 85.5V40.5C126.002 34.5326 123.632 28.8097 119.412 24.5901C115.193 20.3705 109.47 18 103.502 18V18ZM36.0024 49.5C36.0024 45.9196 37.4248 42.4858 39.9565 39.9541C42.4882 37.4223 45.922 36 49.5024 36H58.5024C62.0829 36 65.5166 37.4223 68.0484 39.9541C70.5801 42.4858 72.0024 45.9196 72.0024 49.5V58.5C72.0024 62.0804 70.5801 65.5142 68.0484 68.0459C65.5166 70.5777 62.0829 72 58.5024 72H49.5024C45.922 72 42.4882 70.5777 39.9565 68.0459C37.4248 65.5142 36.0024 62.0804 36.0024 58.5V49.5ZM103.502 90H40.5024C39.309 90 38.1644 89.5259 37.3205 88.682C36.4765 87.8381 36.0024 86.6935 36.0024 85.5C36.0024 84.3065 36.4765 83.1619 37.3205 82.318C38.1644 81.4741 39.309 81 40.5024 81H103.502C104.696 81 105.841 81.4741 106.684 82.318C107.528 83.1619 108.002 84.3065 108.002 85.5C108.002 86.6935 107.528 87.8381 106.684 88.682C105.841 89.5259 104.696 90 103.502 90ZM103.502 67.5H85.5024C84.309 67.5 83.1644 67.0259 82.3205 66.182C81.4765 65.3381 81.0024 64.1935 81.0024 63C81.0024 61.8065 81.4765 60.6619 82.3205 59.818C83.1644 58.9741 84.309 58.5 85.5024 58.5H103.502C104.696 58.5 105.841 58.9741 106.684 59.818C107.528 60.6619 108.002 61.8065 108.002 63C108.002 64.1935 107.528 65.3381 106.684 66.182C105.841 67.0259 104.696 67.5 103.502 67.5ZM103.502 49.5H85.5024C84.309 49.5 83.1644 49.0259 82.3205 48.182C81.4765 47.3381 81.0024 46.1935 81.0024 45C81.0024 43.8065 81.4765 42.6619 82.3205 41.818C83.1644 40.9741 84.309 40.5 85.5024 40.5H103.502C104.696 40.5 105.841 40.9741 106.684 41.818C107.528 42.6619 108.002 43.8065 108.002 45C108.002 46.1935 107.528 47.3381 106.684 48.182C105.841 49.0259 104.696 49.5 103.502 49.5Z" fill="#07E7B7"/>
<path d="M58.5024 45H49.5024C47.0172 45 45.0024 47.0147 45.0024 49.5V58.5C45.0024 60.9853 47.0172 63 49.5024 63H58.5024C60.9877 63 63.0024 60.9853 63.0024 58.5V49.5C63.0024 47.0147 60.9877 45 58.5024 45Z" fill="#07E7B7"/>
</svg>
