<svg width="50" height="51" viewBox="0 0 50 51" fill="none" xmlns="http://www.w3.org/2000/svg">
<path d="M25 5.02148C13.5 5.02148 4.16667 14.3548 4.16667 25.8548C4.16667 37.3548 13.5 46.6882 25 46.6882C36.5 46.6882 45.8333 37.3548 45.8333 25.8548C45.8333 14.3548 36.5 5.02148 25 5.02148ZM34.6667 19.1882C34.3542 22.4798 33 30.4798 32.3125 34.1673C32.0208 35.7298 31.4375 36.2507 30.8958 36.3132C29.6875 36.4173 28.7708 35.5215 27.6042 34.7507C25.7708 33.5423 24.7292 32.7923 22.9583 31.6257C20.8958 30.2715 22.2292 29.5215 23.4167 28.3132C23.7292 28.0007 29.0625 23.1465 29.1667 22.709C29.1811 22.6427 29.1792 22.5739 29.1611 22.5086C29.1429 22.4432 29.1091 22.3833 29.0625 22.334C28.9375 22.2298 28.7708 22.2715 28.625 22.2923C28.4375 22.334 25.5208 24.2715 19.8333 28.1048C19 28.6673 18.25 28.959 17.5833 28.9382C16.8333 28.9173 15.4167 28.5215 14.3542 28.1673C13.0417 27.7507 12.0208 27.5215 12.1042 26.7923C12.1458 26.4173 12.6667 26.0423 13.6458 25.6465C19.7292 23.0007 23.7708 21.2507 25.7917 20.4173C31.5833 18.0007 32.7708 17.584 33.5625 17.584C33.7292 17.584 34.125 17.6257 34.375 17.834C34.5833 18.0007 34.6458 18.2298 34.6667 18.3965C34.6458 18.5215 34.6875 18.8965 34.6667 19.1882Z" fill="#F2F2F2"/>
</svg>
