<svg width="30" height="30" viewBox="0 0 30 30" fill="none" xmlns="http://www.w3.org/2000/svg">
<path d="M27.3006 8.85938C27.8631 10.8281 27.8631 15.0469 27.8631 15.0469C27.8631 15.0469 27.8631 19.2188 27.3006 21.2344C27.0194 22.3594 26.1287 23.2031 25.0506 23.4844C23.035 24 15.0662 24 15.0662 24C15.0662 24 7.05062 24 5.03499 23.4844C3.95687 23.2031 3.06624 22.3594 2.78499 21.2344C2.22249 19.2188 2.22249 15.0469 2.22249 15.0469C2.22249 15.0469 2.22249 10.8281 2.78499 8.85938C3.06624 7.73438 3.95687 6.84375 5.03499 6.5625C7.05062 6 15.0662 6 15.0662 6C15.0662 6 23.035 6 25.0506 6.5625C26.1287 6.84375 27.0194 7.73438 27.3006 8.85938ZM12.4412 18.8438L19.0975 15.0469L12.4412 11.25V18.8438Z" fill="#F2F2F2"/>
</svg>
