<svg width="55" height="56" viewBox="0 0 55 56" fill="none" xmlns="http://www.w3.org/2000/svg">
<rect width="55" height="56" rx="27.5" fill="#07E7B7"/>
<path d="M22.0977 29.2592L23.408 27.9654C23.408 27.9654 24.6985 35.6177 27.8309 36.826C30.9632 38.0342 31.6999 28.8414 31.6999 28.8414L32.2117 19.0016L42.1823 8.84967C42.1823 8.84967 40.1551 45.4373 31.4725 47.0635C31.4725 47.0635 26.8864 47.9394 23.937 36.388L22.0952 29.2567L22.0977 29.2592Z" fill="#F3F3F3"/>
<path d="M12.8242 29.0247L13.8477 28.0153C13.8477 28.0153 14.8539 33.9912 17.3014 34.9351C19.749 35.8791 20.3225 28.7 20.3225 28.7L20.723 21.0149L28.5106 13.0857C28.5106 13.0857 26.9284 41.6561 20.1495 42.9273C20.1495 42.9273 16.5672 43.612 14.2655 34.5928L12.8266 29.0247H12.8242Z" fill="#F3F3F3"/>
</svg>
